League Mono-Bold.ufo
<glyph name="exclam" format="1">
  <advance width="600"/>
  <unicode hex="0021"/>
  <outline>
    <contour>
      <point x="346" y="-11"/>
      <point x="385" y="28"/>
      <point x="385" y="78" type="curve" smooth="yes"/>
      <point x="385" y="126"/>
      <point x="346" y="165"/>
      <point x="296" y="165" type="curve" smooth="yes"/>
      <point x="246" y="165"/>
      <point x="207" y="126"/>
      <point x="207" y="78" type="curve" smooth="yes"/>
      <point x="207" y="28"/>
      <point x="246" y="-11"/>
      <point x="296" y="-11" type="curve" smooth="yes"/>
    </contour>
    <contour>
      <point x="357" y="225" type="line"/>
      <point x="377" y="700" type="line"/>
      <point x="214" y="700" type="line"/>
      <point x="234" y="225" type="line"/>
    </contour>
  </outline>
</glyph>
<glyph name="numbersign" format="1">
  <advance width="600"/>
  <unicode hex="0023"/>
  <outline>
    <contour>
      <point x="151" y="700" type="line"/>
      <point x="70" y="0" type="line"/>
      <point x="220" y="0" type="line"/>
      <point x="301" y="700" type="line"/>
    </contour>
    <contour>
      <point x="367" y="700" type="line"/>
      <point x="286" y="0" type="line"/>
      <point x="436" y="0" type="line"/>
      <point x="517" y="700" type="line"/>
    </contour>
    <contour>
      <point x="7" y="161" type="line"/>
      <point x="533" y="161" type="line"/>
      <point x="547" y="283" type="line"/>
      <point x="21" y="283" type="line"/>
    </contour>
    <contour>
      <point x="40" y="406" type="line"/>
      <point x="566" y="406" type="line"/>
      <point x="580" y="528" type="line"/>
      <point x="54" y="528" type="line"/>
    </contour>
  </outline>
</glyph>
<glyph name="dollar" format="1">
  <advance width="600"/>
  <unicode hex="0024"/>
  <outline>
    <contour>
      <point x="244" y="-130" type="line"/>
      <point x="359" y="-130" type="line"/>
      <point x="359" y="800" type="line"/>
      <point x="244" y="800" type="line"/>
    </contour>
    <contour>
      <point x="240" y="454"/>
      <point x="188" y="475"/>
      <point x="188" y="527" type="curve" smooth="yes"/>
      <point x="188" y="575"/>
      <point x="247" y="583"/>
      <point x="304" y="583" type="curve" smooth="yes"/>
      <point x="368" y="583"/>
      <point x="419" y="563"/>
      <point x="442" y="510" type="curve"/>
      <point x="559" y="575" type="line"/>
      <point x="514" y="665"/>
      <point x="413" y="706"/>
      <point x="314" y="706" type="curve" smooth="yes"/>
      <point x="206" y="706"/>
      <point x="49" y="677"/>
      <point x="49" y="530" type="curve" smooth="yes"/>
      <point x="49" y="370"/>
      <point x="223" y="314"/>
      <point x="293" y="290" type="curve" smooth="yes"/>
      <point x="359" y="267"/>
      <point x="421" y="255"/>
      <point x="421" y="187" type="curve" smooth="yes"/>
      <point x="421" y="122"/>
      <point x="373" y="112"/>
      <point x="293" y="112" type="curve" smooth="yes"/>
      <point x="209" y="112"/>
      <point x="163" y="135"/>
      <point x="140" y="185" type="curve"/>
      <point x="23" y="120" type="line"/>
      <point x="68" y="30"/>
      <point x="174" y="-11"/>
      <point x="293" y="-11" type="curve" smooth="yes"/>
      <point x="414" y="-11"/>
      <point x="569" y="28"/>
      <point x="569" y="187" type="curve" smooth="yes"/>
      <point x="569" y="339"/>
      <point x="377" y="405"/>
      <point x="293" y="435" type="curve" smooth="yes"/>
    </contour>
  </outline>
</glyph>
<glyph name="percent" format="1">
  <advance width="600"/>
  <unicode hex="0025"/>
  <outline>
    <contour>
      <point x="419" y="700" type="line"/>
      <point x="37" y="0" type="line"/>
      <point x="187" y="0" type="line"/>
      <point x="569" y="700" type="line"/>
    </contour>
    <contour>
      <point x="224" y="423"/>
      <point x="284" y="460"/>
      <point x="284" y="557" type="curve" smooth="yes"/>
      <point x="284" y="653"/>
      <point x="224" y="690"/>
      <point x="155" y="690" type="curve" smooth="yes"/>
      <point x="86" y="690"/>
      <point x="26" y="653"/>
      <point x="26" y="557" type="curve" smooth="yes"/>
      <point x="26" y="460"/>
      <point x="86" y="423"/>
      <point x="155" y="423" type="curve" smooth="yes"/>
    </contour>
    <contour>
      <point x="138" y="508"/>
      <point x="123" y="520"/>
      <point x="123" y="557" type="curve" smooth="yes"/>
      <point x="123" y="593"/>
      <point x="138" y="605"/>
      <point x="155" y="605" type="curve" smooth="yes"/>
      <point x="172" y="605"/>
      <point x="187" y="593"/>
      <point x="187" y="557" type="curve" smooth="yes"/>
      <point x="187" y="520"/>
      <point x="172" y="508"/>
      <point x="155" y="508" type="curve" smooth="yes"/>
    </contour>
    <contour>
      <point x="526" y="3"/>
      <point x="586" y="40"/>
      <point x="586" y="137" type="curve" smooth="yes"/>
      <point x="586" y="233"/>
      <point x="526" y="270"/>
      <point x="457" y="270" type="curve" smooth="yes"/>
      <point x="388" y="270"/>
      <point x="328" y="233"/>
      <point x="328" y="137" type="curve" smooth="yes"/>
      <point x="328" y="40"/>
      <point x="388" y="3"/>
      <point x="457" y="3" type="curve" smooth="yes"/>
    </contour>
    <contour>
      <point x="440" y="88"/>
      <point x="425" y="100"/>
      <point x="425" y="137" type="curve" smooth="yes"/>
      <point x="425" y="173"/>
      <point x="440" y="185"/>
      <point x="457" y="185" type="curve" smooth="yes"/>
      <point x="474" y="185"/>
      <point x="489" y="173"/>
      <point x="489" y="137" type="curve" smooth="yes"/>
      <point x="489" y="100"/>
      <point x="474" y="88"/>
      <point x="457" y="88" type="curve" smooth="yes"/>
    </contour>
  </outline>
</glyph>
<glyph name="ampersand" format="1">
  <advance width="600"/>
  <unicode hex="0026"/>
  <outline>
    <contour>
      <point x="340" y="-8"/>
      <point x="401" y="16"/>
      <point x="421" y="32" type="curve"/>
      <point x="439" y="0" type="line"/>
      <point x="563" y="0" type="line"/>
      <point x="505" y="92" type="line"/>
      <point x="543" y="138"/>
      <point x="564" y="178"/>
      <point x="564" y="290" type="curve" smooth="yes"/>
      <point x="564" y="293" type="line"/>
      <point x="438" y="293" type="line"/>
      <point x="438" y="290" type="line" smooth="yes"/>
      <point x="438" y="266"/>
      <point x="439" y="233"/>
      <point x="429" y="217" type="curve"/>
      <point x="329" y="371" type="line"/>
      <point x="391" y="422"/>
      <point x="440" y="482"/>
      <point x="440" y="569" type="curve" smooth="yes"/>
      <point x="440" y="656"/>
      <point x="373" y="706"/>
      <point x="274" y="706" type="curve" smooth="yes"/>
      <point x="175" y="706"/>
      <point x="102" y="651"/>
      <point x="102" y="565" type="curve" smooth="yes"/>
      <point x="102" y="506"/>
      <point x="124" y="466"/>
      <point x="168" y="402" type="curve"/>
      <point x="87" y="347"/>
      <point x="39" y="266"/>
      <point x="39" y="185" type="curve" smooth="yes"/>
      <point x="39" y="68"/>
      <point x="123" y="-8"/>
      <point x="274" y="-8" type="curve" smooth="yes"/>
    </contour>
    <contour>
      <point x="217" y="112"/>
      <point x="176" y="146"/>
      <point x="176" y="191" type="curve" smooth="yes"/>
      <point x="176" y="235"/>
      <point x="199" y="271"/>
      <point x="240" y="301" type="curve"/>
      <point x="350" y="131" type="line"/>
      <point x="343" y="125"/>
      <point x="319" y="112"/>
      <point x="269" y="112" type="curve" smooth="yes"/>
    </contour>
    <contour>
      <point x="243" y="500"/>
      <point x="225" y="526"/>
      <point x="225" y="559" type="curve" smooth="yes"/>
      <point x="225" y="587"/>
      <point x="244" y="604"/>
      <point x="273" y="604" type="curve" smooth="yes"/>
      <point x="303" y="604"/>
      <point x="318" y="587"/>
      <point x="318" y="558" type="curve" smooth="yes"/>
      <point x="318" y="527"/>
      <point x="296" y="493"/>
      <point x="267" y="468" type="curve"/>
    </contour>
  </outline>
</glyph>
<glyph name="quotesingle" format="1">
  <advance width="600"/>
  <unicode hex="0027"/>
  <outline>
    <contour>
      <point x="253" y="503" type="line"/>
      <point x="346" y="503" type="line"/>
      <point x="377" y="757" type="line"/>
      <point x="222" y="757" type="line"/>
    </contour>
  </outline>
</glyph>
<glyph name="parenleft" format="1">
  <advance width="600"/>
  <unicode hex="0028"/>
  <outline>
    <contour>
      <point x="501" y="-170" type="line"/>
      <point x="495" y="-161"/>
      <point x="348" y="-2"/>
      <point x="348" y="294" type="curve" smooth="yes"/>
      <point x="348" y="589"/>
      <point x="495" y="749"/>
      <point x="501" y="757" type="curve"/>
      <point x="373" y="820" type="line"/>
      <point x="367" y="811"/>
      <point x="195" y="640"/>
      <point x="195" y="294" type="curve" smooth="yes"/>
      <point x="195" y="-53"/>
      <point x="367" y="-224"/>
      <point x="373" y="-233" type="curve"/>
    </contour>
  </outline>
</glyph>
<glyph name="asterisk" format="1">
  <advance width="600"/>
  <unicode hex="002A"/>
  <outline>
    <contour>
      <point x="430" y="558" type="line"/>
      <point x="345" y="665" type="line"/>
      <point x="281" y="614" type="line"/>
      <point x="351" y="502" type="line"/>
    </contour>
    <contour>
      <point x="317" y="614" type="line"/>
      <point x="254" y="665" type="line"/>
      <point x="168" y="558" type="line"/>
      <point x="247" y="502" type="line"/>
    </contour>
    <contour>
      <point x="299" y="700" type="line"/>
      <point x="168" y="745" type="line"/>
      <point x="136" y="651" type="line"/>
      <point x="281" y="614" type="line"/>
    </contour>
    <contour>
      <point x="325" y="611"/>
      <point x="347" y="630"/>
      <point x="347" y="654" type="curve" smooth="yes"/>
      <point x="347" y="676"/>
      <point x="325" y="700"/>
      <point x="299" y="700" type="curve" smooth="yes"/>
      <point x="272" y="700"/>
      <point x="250" y="676"/>
      <point x="250" y="654" type="curve" smooth="yes"/>
      <point x="250" y="630"/>
      <point x="272" y="611"/>
      <point x="299" y="611" type="curve" smooth="yes"/>
    </contour>
    <contour>
      <point x="345" y="665" type="line"/>
      <point x="352" y="800" type="line"/>
      <point x="247" y="800" type="line"/>
      <point x="254" y="665" type="line"/>
    </contour>
    <contour>
      <point x="462" y="651" type="line"/>
      <point x="430" y="745" type="line"/>
      <point x="299" y="700" type="line"/>
      <point x="317" y="614" type="line"/>
    </contour>
  </outline>
</glyph>
<glyph name="plus" format="1">
  <advance width="600"/>
  <unicode hex="002B"/>
  <outline>
    <contour>
      <point x="99" y="243" type="line"/>
      <point x="506" y="243" type="line"/>
      <point x="506" y="365" type="line"/>
      <point x="99" y="365" type="line"/>
    </contour>
    <contour>
      <point x="364" y="100" type="line"/>
      <point x="364" y="507" type="line"/>
      <point x="242" y="507" type="line"/>
      <point x="242" y="100" type="line"/>
    </contour>
  </outline>
</glyph>
<glyph name="comma" format="1">
  <advance width="600"/>
  <unicode hex="002C"/>
  <outline>
    <contour>
      <point x="311" y="-14"/>
      <point x="354" y="30"/>
      <point x="354" y="86" type="curve" smooth="yes"/>
      <point x="354" y="139"/>
      <point x="311" y="183"/>
      <point x="256" y="183" type="curve" smooth="yes"/>
      <point x="201" y="183"/>
      <point x="158" y="139"/>
      <point x="158" y="86" type="curve" smooth="yes"/>
      <point x="158" y="30"/>
      <point x="201" y="-14"/>
      <point x="256" y="-14" type="curve" smooth="yes"/>
    </contour>
    <contour>
      <point x="179" y="-125" type="line"/>
      <point x="260" y="-152" type="line"/>
      <point x="341" y="36" type="line"/>
      <point x="228" y="25" type="line"/>
    </contour>
  </outline>
</glyph>
<glyph name="hyphen" format="1">
  <advance width="600"/>
  <unicode hex="002D"/>
  <outline>
    <contour>
      <point x="138" y="243" type="line"/>
      <point x="456" y="243" type="line"/>
      <point x="456" y="365" type="line"/>
      <point x="138" y="365" type="line"/>
    </contour>
  </outline>
</glyph>
<glyph name="period" format="1">
  <advance width="600"/>
  <unicode hex="002E"/>
  <outline>
    <contour>
      <point x="358" y="-11"/>
      <point x="407" y="38"/>
      <point x="407" y="100" type="curve" smooth="yes"/>
      <point x="407" y="162"/>
      <point x="358" y="211"/>
      <point x="296" y="211" type="curve" smooth="yes"/>
      <point x="234" y="211"/>
      <point x="185" y="162"/>
      <point x="185" y="100" type="curve" smooth="yes"/>
      <point x="185" y="38"/>
      <point x="234" y="-11"/>
      <point x="296" y="-11" type="curve" smooth="yes"/>
    </contour>
  </outline>
</glyph>
<glyph name="slash" format="1">
  <advance width="600"/>
  <unicode hex="002F"/>
  <outline>
    <contour>
      <point x="356" y="800" type="line"/>
      <point x="107" y="-142" type="line"/>
      <point x="247" y="-142" type="line"/>
      <point x="496" y="800" type="line"/>
    </contour>
  </outline>
</glyph>
<glyph name="zero" format="1">
  <advance width="600"/>
  <unicode hex="0030"/>
  <outline>
    <contour>
      <point x="443" y="-11"/>
      <point x="566" y="60"/>
      <point x="566" y="348" type="curve" smooth="yes"/>
      <point x="566" y="635"/>
      <point x="443" y="706"/>
      <point x="302" y="706" type="curve" smooth="yes"/>
      <point x="160" y="706"/>
      <point x="37" y="635"/>
      <point x="37" y="348" type="curve" smooth="yes"/>
      <point x="37" y="60"/>
      <point x="160" y="-11"/>
      <point x="302" y="-11" type="curve" smooth="yes"/>
    </contour>
    <contour>
      <point x="239" y="112"/>
      <point x="195" y="144"/>
      <point x="195" y="348" type="curve" smooth="yes"/>
      <point x="195" y="551"/>
      <point x="239" y="583"/>
      <point x="302" y="583" type="curve" smooth="yes"/>
      <point x="364" y="583"/>
      <point x="408" y="551"/>
      <point x="408" y="348" type="curve" smooth="yes"/>
      <point x="408" y="144"/>
      <point x="364" y="112"/>
      <point x="302" y="112" type="curve" smooth="yes"/>
    </contour>
    <contour>
      <point x="336" y="254"/>
      <point x="367" y="263"/>
      <point x="367" y="348" type="curve" smooth="yes"/>
      <point x="367" y="432"/>
      <point x="336" y="441"/>
      <point x="302" y="441" type="curve" smooth="yes"/>
      <point x="267" y="441"/>
      <point x="236" y="432"/>
      <point x="236" y="348" type="curve" smooth="yes"/>
      <point x="236" y="263"/>
      <point x="267" y="254"/>
      <point x="302" y="254" type="curve" smooth="yes"/>
    </contour>
  </outline>
</glyph>
<glyph name="one" format="1">
  <advance width="600"/>
  <unicode hex="0031"/>
  <outline>
    <contour>
      <point x="140" y="473" type="line"/>
      <point x="239" y="535" type="line"/>
      <point x="264" y="700" type="line"/>
      <point x="79" y="589" type="line"/>
    </contour>
    <contour>
      <point x="392" y="56" type="line"/>
      <point x="392" y="700" type="line"/>
      <point x="264" y="700" type="line"/>
      <point x="239" y="535" type="line"/>
      <point x="239" y="31" type="line"/>
    </contour>
    <contour>
      <point x="111" y="0" type="line"/>
      <point x="511" y="0" type="line"/>
      <point x="511" y="122" type="line"/>
      <point x="111" y="122" type="line"/>
    </contour>
  </outline>
</glyph>
<glyph name="two" format="1">
  <advance width="600"/>
  <unicode hex="0032"/>
  <outline>
    <contour>
      <point x="297" y="122" type="line"/>
      <point x="303" y="126"/>
      <point x="349" y="164"/>
      <point x="398" y="221" type="curve" smooth="yes"/>
      <point x="479" y="316"/>
      <point x="540" y="404"/>
      <point x="540" y="505" type="curve" smooth="yes"/>
      <point x="540" y="631"/>
      <point x="450" y="706"/>
      <point x="305" y="706" type="curve" smooth="yes"/>
      <point x="197" y="706"/>
      <point x="110" y="662"/>
      <point x="60" y="565" type="curve"/>
      <point x="188" y="500" type="line"/>
      <point x="209" y="540"/>
      <point x="242" y="583"/>
      <point x="298" y="583" type="curve" smooth="yes"/>
      <point x="352" y="583"/>
      <point x="382" y="559"/>
      <point x="382" y="500" type="curve" smooth="yes"/>
      <point x="382" y="422"/>
      <point x="323" y="352"/>
      <point x="255" y="277" type="curve" smooth="yes"/>
      <point x="202" y="217"/>
      <point x="114" y="151"/>
      <point x="68" y="122" type="curve"/>
    </contour>
    <contour>
      <point x="537" y="0" type="line"/>
      <point x="537" y="122" type="line"/>
      <point x="68" y="122" type="line"/>
      <point x="68" y="0" type="line"/>
    </contour>
  </outline>
</glyph>
<glyph name="three" format="1">
  <advance width="600"/>
  <unicode hex="0033"/>
  <outline>
    <contour>
      <point x="448" y="-11"/>
      <point x="553" y="67"/>
      <point x="553" y="196" type="curve" smooth="yes"/>
      <point x="553" y="290"/>
      <point x="499" y="361"/>
      <point x="377" y="371" type="curve" smooth="yes"/>
      <point x="373" y="371"/>
      <point x="265" y="293"/>
      <point x="271" y="293" type="curve" smooth="yes"/>
      <point x="381" y="293"/>
      <point x="404" y="246"/>
      <point x="404" y="200" type="curve" smooth="yes"/>
      <point x="404" y="146"/>
      <point x="370" y="112"/>
      <point x="305" y="112" type="curve" smooth="yes"/>
      <point x="237" y="112"/>
      <point x="192" y="145"/>
      <point x="170" y="195" type="curve"/>
      <point x="48" y="130" type="line"/>
      <point x="86" y="54"/>
      <point x="179" y="-11"/>
      <point x="308" y="-11" type="curve" smooth="yes"/>
    </contour>
    <contour>
      <point x="401" y="293" type="line"/>
      <point x="401" y="415" type="line"/>
      <point x="233" y="415" type="line"/>
      <point x="233" y="293" type="line"/>
    </contour>
    <contour>
      <point x="491" y="368"/>
      <point x="539" y="433"/>
      <point x="539" y="520" type="curve" smooth="yes"/>
      <point x="539" y="639"/>
      <point x="434" y="706"/>
      <point x="303" y="706" type="curve" smooth="yes"/>
      <point x="183" y="706"/>
      <point x="98" y="639"/>
      <point x="61" y="565" type="curve"/>
      <point x="183" y="500" type="line"/>
      <point x="204" y="548"/>
      <point x="244" y="583"/>
      <point x="303" y="583" type="curve" smooth="yes"/>
      <point x="359" y="583"/>
      <point x="390" y="560"/>
      <point x="390" y="506" type="curve" smooth="yes"/>
      <point x="390" y="464"/>
      <point x="381" y="415"/>
      <point x="271" y="415" type="curve" smooth="yes"/>
      <point x="265" y="415"/>
      <point x="367" y="336"/>
      <point x="371" y="337" type="curve" smooth="yes"/>
    </contour>
  </outline>
</glyph>
<glyph name="four" format="1">
  <advance width="600"/>
  <unicode hex="0034"/>
  <outline>
    <contour>
      <point x="198" y="254" type="line"/>
      <point x="322" y="631" type="line"/>
      <point x="213" y="700" type="line"/>
      <point x="56" y="254" type="line"/>
    </contour>
    <contour>
      <point x="386" y="578" type="line"/>
      <point x="386" y="700" type="line"/>
      <point x="213" y="700" type="line"/>
      <point x="213" y="578" type="line"/>
    </contour>
    <contour>
      <point x="452" y="0" type="line"/>
      <point x="452" y="700" type="line"/>
      <point x="304" y="700" type="line"/>
      <point x="299" y="0" type="line"/>
    </contour>
    <contour>
      <point x="551" y="132" type="line"/>
      <point x="551" y="254" type="line"/>
      <point x="56" y="254" type="line"/>
      <point x="56" y="132" type="line"/>
    </contour>
  </outline>
</glyph>
<glyph name="five" format="1">
  <advance width="600"/>
  <unicode hex="0035"/>
  <outline>
    <contour>
      <point x="429" y="-11"/>
      <point x="537" y="60"/>
      <point x="537" y="231" type="curve" smooth="yes"/>
      <point x="537" y="394"/>
      <point x="449" y="469"/>
      <point x="312" y="469" type="curve" smooth="yes"/>
      <point x="211" y="469"/>
      <point x="141" y="419"/>
      <point x="113" y="329" type="curve"/>
      <point x="185" y="273" type="line"/>
      <point x="202" y="320"/>
      <point x="244" y="339"/>
      <point x="298" y="339" type="curve" smooth="yes"/>
      <point x="360" y="339"/>
      <point x="389" y="311"/>
      <point x="389" y="236" type="curve" smooth="yes"/>
      <point x="389" y="159"/>
      <point x="354" y="112"/>
      <point x="292" y="112" type="curve" smooth="yes"/>
      <point x="224" y="112"/>
      <point x="186" y="151"/>
      <point x="171" y="186" type="curve"/>
      <point x="43" y="114" type="line"/>
      <point x="95" y="22"/>
      <point x="170" y="-11"/>
      <point x="292" y="-11" type="curve" smooth="yes"/>
    </contour>
    <contour>
      <point x="230" y="673" type="line"/>
      <point x="98" y="700" type="line"/>
      <point x="62" y="325" type="line"/>
      <point x="185" y="273" type="line"/>
    </contour>
    <contour>
      <point x="504" y="578" type="line"/>
      <point x="504" y="700" type="line"/>
      <point x="98" y="700" type="line"/>
      <point x="118" y="578" type="line"/>
    </contour>
  </outline>
</glyph>
<glyph name="six" format="1">
  <advance width="600"/>
  <unicode hex="0036"/>
  <outline>
    <contour>
      <point x="510" y="671" type="line"/>
      <point x="489" y="686"/>
      <point x="440" y="709"/>
      <point x="347" y="706" type="curve" smooth="yes"/>
      <point x="211" y="702"/>
      <point x="50" y="610"/>
      <point x="50" y="328" type="curve" smooth="yes"/>
      <point x="50" y="75"/>
      <point x="138" y="-11"/>
      <point x="305" y="-11" type="curve"/>
      <point x="305" y="112" type="line"/>
      <point x="242" y="112"/>
      <point x="198" y="139"/>
      <point x="198" y="328" type="curve" smooth="yes"/>
      <point x="198" y="526"/>
      <point x="266" y="579"/>
      <point x="347" y="583" type="curve" smooth="yes"/>
      <point x="405" y="586"/>
      <point x="435" y="573"/>
      <point x="448" y="564" type="curve"/>
    </contour>
    <contour>
      <point x="305" y="-11" type="line"/>
      <point x="462" y="-11"/>
      <point x="547" y="83"/>
      <point x="547" y="234" type="curve" smooth="yes"/>
      <point x="547" y="387"/>
      <point x="483" y="472"/>
      <point x="326" y="472" type="curve" smooth="yes"/>
      <point x="235" y="472"/>
      <point x="170" y="423"/>
      <point x="122" y="333" type="curve"/>
      <point x="196" y="266" type="line"/>
      <point x="212" y="299"/>
      <point x="251" y="339"/>
      <point x="315" y="339" type="curve" smooth="yes"/>
      <point x="368" y="339"/>
      <point x="399" y="323"/>
      <point x="399" y="234" type="curve" smooth="yes"/>
      <point x="399" y="147"/>
      <point x="358" y="112"/>
      <point x="305" y="112" type="curve"/>
    </contour>
  </outline>
</glyph>
<glyph name="seven" format="1">
  <advance width="600"/>
  <unicode hex="0037"/>
  <outline>
    <contour>
      <point x="370" y="578" type="line"/>
      <point x="104" y="0" type="line"/>
      <point x="264" y="0" type="line"/>
      <point x="525" y="578" type="line"/>
    </contour>
    <contour>
      <point x="525" y="700" type="line"/>
      <point x="74" y="700" type="line"/>
      <point x="74" y="578" type="line"/>
      <point x="525" y="578" type="line"/>
    </contour>
  </outline>
</glyph>
<glyph name="eight" format="1">
  <advance width="600"/>
  <unicode hex="0038"/>
  <outline>
    <contour>
      <point x="459" y="-11"/>
      <point x="557" y="68"/>
      <point x="557" y="201" type="curve" smooth="yes"/>
      <point x="557" y="363"/>
      <point x="419" y="410"/>
      <point x="303" y="410" type="curve" smooth="yes"/>
      <point x="186" y="410"/>
      <point x="48" y="363"/>
      <point x="48" y="201" type="curve" smooth="yes"/>
      <point x="48" y="68"/>
      <point x="146" y="-11"/>
      <point x="303" y="-11" type="curve" smooth="yes"/>
    </contour>
    <contour>
      <point x="250" y="112"/>
      <point x="204" y="132"/>
      <point x="204" y="211" type="curve" smooth="yes"/>
      <point x="204" y="289"/>
      <point x="260" y="310"/>
      <point x="303" y="310" type="curve" smooth="yes"/>
      <point x="345" y="310"/>
      <point x="401" y="289"/>
      <point x="401" y="211" type="curve" smooth="yes"/>
      <point x="401" y="132"/>
      <point x="355" y="112"/>
      <point x="303" y="112" type="curve" smooth="yes"/>
    </contour>
    <contour>
      <point x="409" y="327"/>
      <point x="527" y="393"/>
      <point x="527" y="516" type="curve" smooth="yes"/>
      <point x="527" y="638"/>
      <point x="439" y="707"/>
      <point x="303" y="707" type="curve" smooth="yes"/>
      <point x="166" y="707"/>
      <point x="78" y="638"/>
      <point x="78" y="516" type="curve" smooth="yes"/>
      <point x="78" y="393"/>
      <point x="196" y="327"/>
      <point x="303" y="327" type="curve" smooth="yes"/>
    </contour>
    <contour>
      <point x="260" y="427"/>
      <point x="225" y="453"/>
      <point x="225" y="510" type="curve" smooth="yes"/>
      <point x="225" y="566"/>
      <point x="260" y="584"/>
      <point x="303" y="584" type="curve" smooth="yes"/>
      <point x="345" y="584"/>
      <point x="380" y="566"/>
      <point x="380" y="510" type="curve" smooth="yes"/>
      <point x="380" y="453"/>
      <point x="345" y="427"/>
      <point x="303" y="427" type="curve" smooth="yes"/>
    </contour>
  </outline>
</glyph>
<glyph name="nine" format="1">
  <advance width="600"/>
  <unicode hex="0039"/>
  <outline>
    <contour>
      <point x="292" y="707" type="line"/>
      <point x="135" y="707"/>
      <point x="50" y="616"/>
      <point x="50" y="465" type="curve" smooth="yes"/>
      <point x="50" y="312"/>
      <point x="123" y="224"/>
      <point x="280" y="224" type="curve" smooth="yes"/>
      <point x="371" y="224"/>
      <point x="443" y="273"/>
      <point x="491" y="363" type="curve"/>
      <point x="411" y="428" type="line"/>
      <point x="381" y="366"/>
      <point x="333" y="347"/>
      <point x="289" y="347" type="curve" smooth="yes"/>
      <point x="245" y="347"/>
      <point x="208" y="377"/>
      <point x="208" y="464" type="curve" smooth="yes"/>
      <point x="208" y="551"/>
      <point x="229" y="584"/>
      <point x="292" y="584" type="curve"/>
    </contour>
    <contour>
      <point x="103" y="0" type="line"/>
      <point x="115" y="0"/>
      <point x="229" y="-3"/>
      <point x="307" y="21" type="curve" smooth="yes"/>
      <point x="428" y="58"/>
      <point x="547" y="126"/>
      <point x="547" y="398" type="curve" smooth="yes"/>
      <point x="547" y="631"/>
      <point x="459" y="707"/>
      <point x="292" y="707" type="curve"/>
      <point x="292" y="584" type="line"/>
      <point x="355" y="584"/>
      <point x="389" y="567"/>
      <point x="389" y="398" type="curve" smooth="yes"/>
      <point x="389" y="220"/>
      <point x="346" y="170"/>
      <point x="297" y="149" type="curve" smooth="yes"/>
      <point x="233" y="121"/>
      <point x="138" y="121"/>
      <point x="103" y="121" type="curve"/>
    </contour>
  </outline>
</glyph>
<glyph name="less" format="1">
  <advance width="600"/>
  <unicode hex="003C"/>
  <outline>
    <contour>
      <point x="220" y="222" type="line"/>
      <point x="511" y="469" type="line"/>
      <point x="448" y="562" type="line"/>
      <point x="92" y="352" type="line"/>
    </contour>
    <contour>
      <point x="92" y="225" type="line"/>
      <point x="203" y="225" type="line"/>
      <point x="203" y="352" type="line"/>
      <point x="92" y="352" type="line"/>
    </contour>
    <contour>
      <point x="448" y="15" type="line"/>
      <point x="511" y="108" type="line"/>
      <point x="220" y="355" type="line"/>
      <point x="92" y="225" type="line"/>
    </contour>
  </outline>
</glyph>
<glyph name="equal" format="1">
  <advance width="600"/>
  <unicode hex="003D"/>
  <outline>
    <contour>
      <point x="95" y="151" type="line"/>
      <point x="502" y="151" type="line"/>
      <point x="502" y="273" type="line"/>
      <point x="95" y="273" type="line"/>
    </contour>
    <contour>
      <point x="95" y="335" type="line"/>
      <point x="502" y="335" type="line"/>
      <point x="502" y="457" type="line"/>
      <point x="95" y="457" type="line"/>
    </contour>
  </outline>
</glyph>
<glyph name="question" format="1">
  <advance width="600"/>
  <unicode hex="003F"/>
  <outline>
    <contour>
      <point x="352" y="225" type="line"/>
      <point x="352" y="243" type="line"/>
      <point x="352" y="340"/>
      <point x="549" y="378"/>
      <point x="549" y="520" type="curve" smooth="yes"/>
      <point x="549" y="649"/>
      <point x="434" y="706"/>
      <point x="303" y="706" type="curve" smooth="yes"/>
      <point x="173" y="706"/>
      <point x="93" y="649"/>
      <point x="56" y="575" type="curve"/>
      <point x="173" y="500" type="line"/>
      <point x="194" y="548"/>
      <point x="244" y="583"/>
      <point x="303" y="583" type="curve" smooth="yes"/>
      <point x="379" y="583"/>
      <point x="390" y="554"/>
      <point x="390" y="510" type="curve" smooth="yes"/>
      <point x="390" y="433"/>
      <point x="218" y="401"/>
      <point x="218" y="238" type="curve"/>
      <point x="218" y="225" type="line"/>
    </contour>
    <contour>
      <point x="335" y="-11"/>
      <point x="374" y="28"/>
      <point x="374" y="77" type="curve" smooth="yes"/>
      <point x="374" y="125"/>
      <point x="335" y="164"/>
      <point x="286" y="164" type="curve" smooth="yes"/>
      <point x="237" y="164"/>
      <point x="198" y="125"/>
      <point x="198" y="77" type="curve" smooth="yes"/>
      <point x="198" y="28"/>
      <point x="237" y="-11"/>
      <point x="286" y="-11" type="curve" smooth="yes"/>
    </contour>
  </outline>
</glyph>
<glyph name="at" format="1">
  <advance width="600"/>
  <unicode hex="0040"/>
  <outline>
    <contour>
      <point x="347" y="-11"/>
      <point x="419" y="10"/>
      <point x="424" y="13" type="curve"/>
      <point x="370" y="111" type="line"/>
      <point x="370" y="111"/>
      <point x="340" y="92"/>
      <point x="263" y="95" type="curve" smooth="yes"/>
      <point x="140" y="100"/>
      <point x="99" y="190"/>
      <point x="115" y="358" type="curve" smooth="yes"/>
      <point x="132" y="539"/>
      <point x="205" y="605"/>
      <point x="338" y="604" type="curve" smooth="yes"/>
      <point x="471" y="603"/>
      <point x="506" y="536"/>
      <point x="488" y="361" type="curve" smooth="yes"/>
      <point x="479" y="274"/>
      <point x="474" y="228"/>
      <point x="444" y="231" type="curve" smooth="yes"/>
      <point x="424" y="233"/>
      <point x="432" y="295"/>
      <point x="436" y="337" type="curve" smooth="yes"/>
      <point x="439" y="373"/>
      <point x="456" y="516"/>
      <point x="456" y="516" type="curve" smooth="yes"/>
      <point x="456" y="516"/>
      <point x="402" y="550"/>
      <point x="336" y="552" type="curve" smooth="yes"/>
      <point x="241" y="555"/>
      <point x="169" y="491"/>
      <point x="156" y="347" type="curve" smooth="yes"/>
      <point x="143" y="201"/>
      <point x="191" y="145"/>
      <point x="268" y="145" type="curve" smooth="yes"/>
      <point x="318" y="145"/>
      <point x="361" y="181"/>
      <point x="370" y="210" type="curve"/>
      <point x="368" y="174"/>
      <point x="387" y="125"/>
      <point x="437" y="116" type="curve" smooth="yes"/>
      <point x="537" y="99"/>
      <point x="578" y="194"/>
      <point x="592" y="351" type="curve" smooth="yes"/>
      <point x="616" y="614"/>
      <point x="501" y="704"/>
      <point x="353" y="706" type="curve" smooth="yes"/>
      <point x="198" y="708"/>
      <point x="21" y="643"/>
      <point x="4" y="348" type="curve" smooth="yes"/>
      <point x="-13" y="50"/>
      <point x="136" y="-6"/>
      <point x="263" y="-9" type="curve" smooth="yes"/>
    </contour>
    <contour>
      <point x="263" y="272"/>
      <point x="257" y="293"/>
      <point x="263" y="346" type="curve" smooth="yes"/>
      <point x="270" y="406"/>
      <point x="283" y="437"/>
      <point x="317" y="435" type="curve" smooth="yes"/>
      <point x="334" y="434"/>
      <point x="342" y="430"/>
      <point x="342" y="430" type="curve"/>
      <point x="342" y="430"/>
      <point x="334" y="354"/>
      <point x="333" y="342" type="curve" smooth="yes"/>
      <point x="328" y="283"/>
      <point x="310" y="267"/>
      <point x="291" y="269" type="curve" smooth="yes"/>
    </contour>
  </outline>
</glyph>
<glyph name="A" format="1">
  <advance width="600"/>
  <unicode hex="0041"/>
  <outline>
    <contour>
      <point x="22" y="0" type="line"/>
      <point x="177" y="0" type="line"/>
      <point x="334" y="700" type="line"/>
      <point x="179" y="700" type="line"/>
    </contour>
    <contour>
      <point x="266" y="700" type="line"/>
      <point x="423" y="0" type="line"/>
      <point x="578" y="0" type="line"/>
      <point x="421" y="700" type="line"/>
    </contour>
    <contour>
      <point x="221" y="618" type="line"/>
      <point x="379" y="618" type="line"/>
      <point x="379" y="700" type="line"/>
      <point x="221" y="700" type="line"/>
    </contour>
    <contour>
      <point x="129" y="164" type="line"/>
      <point x="471" y="164" type="line"/>
      <point x="471" y="286" type="line"/>
      <point x="129" y="286" type="line"/>
    </contour>
  </outline>
</glyph>
<glyph name="B" format="1">
  <advance width="600"/>
  <unicode hex="0042"/>
  <outline>
    <contour>
      <point x="426" y="371"/>
      <point x="524" y="386"/>
      <point x="524" y="529" type="curve" smooth="yes"/>
      <point x="524" y="690"/>
      <point x="400" y="700"/>
      <point x="316" y="700" type="curve" smooth="yes"/>
      <point x="75" y="700" type="line"/>
      <point x="75" y="0" type="line"/>
      <point x="367" y="0" type="line" smooth="yes"/>
      <point x="486" y="0"/>
      <point x="559" y="66"/>
      <point x="559" y="200" type="curve" smooth="yes"/>
      <point x="559" y="356"/>
      <point x="426" y="371"/>
      <point x="426" y="371" type="curve" smooth="yes"/>
    </contour>
    <contour>
      <point x="284" y="578" type="line" smooth="yes"/>
      <point x="346" y="578"/>
      <point x="365" y="560"/>
      <point x="365" y="506" type="curve" smooth="yes"/>
      <point x="365" y="447"/>
      <point x="348" y="422"/>
      <point x="288" y="422" type="curve" smooth="yes"/>
      <point x="228" y="422" type="line"/>
      <point x="228" y="578" type="line"/>
    </contour>
    <contour>
      <point x="228" y="122" type="line"/>
      <point x="228" y="300" type="line"/>
      <point x="316" y="300" type="line" smooth="yes"/>
      <point x="373" y="300"/>
      <point x="405" y="283"/>
      <point x="405" y="211" type="curve" smooth="yes"/>
      <point x="405" y="145"/>
      <point x="386" y="122"/>
      <point x="316" y="122" type="curve" smooth="yes"/>
    </contour>
  </outline>
</glyph>
<glyph name="C" format="1">
  <advance width="600"/>
  <unicode hex="0043"/>
  <outline>
    <contour>
      <point x="433" y="208" type="line"/>
      <point x="419" y="179"/>
      <point x="394" y="112"/>
      <point x="319" y="112" type="curve" smooth="yes"/>
      <point x="246" y="112"/>
      <point x="202" y="149"/>
      <point x="202" y="348" type="curve" smooth="yes"/>
      <point x="202" y="546"/>
      <point x="246" y="583"/>
      <point x="319" y="583" type="curve" smooth="yes"/>
      <point x="373" y="583"/>
      <point x="412" y="541"/>
      <point x="433" y="490" type="curve"/>
      <point x="567" y="565" type="line"/>
      <point x="519" y="655"/>
      <point x="451" y="706"/>
      <point x="319" y="706" type="curve" smooth="yes"/>
      <point x="152" y="706"/>
      <point x="44" y="630"/>
      <point x="44" y="348" type="curve" smooth="yes"/>
      <point x="44" y="65"/>
      <point x="152" y="-11"/>
      <point x="319" y="-11" type="curve" smooth="yes"/>
      <point x="431" y="-11"/>
      <point x="516" y="29"/>
      <point x="573" y="137" type="curve"/>
    </contour>
  </outline>
</glyph>
<glyph name="D" format="1">
  <advance width="600"/>
  <unicode hex="0044"/>
  <outline>
    <contour>
      <point x="572" y="350" type="line"/>
      <point x="572" y="700"/>
      <point x="400" y="700"/>
      <point x="295" y="700" type="curve" smooth="yes"/>
      <point x="78" y="700" type="line"/>
      <point x="78" y="350" type="line"/>
      <point x="231" y="350" type="line"/>
      <point x="231" y="402" type="line"/>
      <point x="231" y="578" type="line"/>
      <point x="278" y="578" type="line"/>
      <point x="390" y="578"/>
      <point x="415" y="526"/>
      <point x="415" y="350" type="curve"/>
    </contour>
    <contour>
      <point x="415" y="174"/>
      <point x="390" y="122"/>
      <point x="278" y="122" type="curve"/>
      <point x="231" y="122" type="line"/>
      <point x="231" y="298" type="line"/>
      <point x="231" y="350" type="line"/>
      <point x="78" y="350" type="line"/>
      <point x="78" y="0" type="line"/>
      <point x="295" y="0" type="line" smooth="yes"/>
      <point x="400" y="0"/>
      <point x="572" y="0"/>
      <point x="572" y="350" type="curve"/>
      <point x="415" y="350" type="line"/>
    </contour>
  </outline>
</glyph>
<glyph name="E" format="1">
  <advance width="600"/>
  <unicode hex="0045"/>
  <outline>
    <contour>
      <point x="245" y="0" type="line"/>
      <point x="245" y="700" type="line"/>
      <point x="92" y="700" type="line"/>
      <point x="92" y="0" type="line"/>
    </contour>
    <contour>
      <point x="174" y="0" type="line"/>
      <point x="536" y="0" type="line"/>
      <point x="536" y="122" type="line"/>
      <point x="174" y="122" type="line"/>
    </contour>
    <contour>
      <point x="174" y="283" type="line"/>
      <point x="482" y="283" type="line"/>
      <point x="482" y="405" type="line"/>
      <point x="174" y="405" type="line"/>
    </contour>
    <contour>
      <point x="174" y="578" type="line"/>
      <point x="536" y="578" type="line"/>
      <point x="536" y="700" type="line"/>
      <point x="174" y="700" type="line"/>
    </contour>
  </outline>
</glyph>
<glyph name="F" format="1">
  <advance width="600"/>
  <unicode hex="0046"/>
  <outline>
    <contour>
      <point x="264" y="0" type="line"/>
      <point x="264" y="700" type="line"/>
      <point x="111" y="700" type="line"/>
      <point x="111" y="0" type="line"/>
    </contour>
    <contour>
      <point x="193" y="283" type="line"/>
      <point x="505" y="283" type="line"/>
      <point x="505" y="405" type="line"/>
      <point x="193" y="405" type="line"/>
    </contour>
    <contour>
      <point x="193" y="578" type="line"/>
      <point x="545" y="578" type="line"/>
      <point x="545" y="700" type="line"/>
      <point x="193" y="700" type="line"/>
    </contour>
  </outline>
</glyph>
<glyph name="G" format="1">
  <advance width="600"/>
  <unicode hex="0047"/>
  <outline>
    <contour>
      <point x="404" y="151" type="line"/>
      <point x="392" y="131"/>
      <point x="359" y="112"/>
      <point x="308" y="112" type="curve" smooth="yes"/>
      <point x="242" y="112"/>
      <point x="188" y="145"/>
      <point x="188" y="348" type="curve" smooth="yes"/>
      <point x="188" y="551"/>
      <point x="244" y="583"/>
      <point x="307" y="583" type="curve" smooth="yes"/>
      <point x="379" y="583"/>
      <point x="396" y="541"/>
      <point x="423" y="491" type="curve"/>
      <point x="558" y="564" type="line"/>
      <point x="510" y="654"/>
      <point x="448" y="706"/>
      <point x="308" y="706" type="curve" smooth="yes"/>
      <point x="151" y="706"/>
      <point x="30" y="635"/>
      <point x="30" y="348" type="curve" smooth="yes"/>
      <point x="30" y="60"/>
      <point x="151" y="-11"/>
      <point x="308" y="-11" type="curve" smooth="yes"/>
      <point x="429" y="-11"/>
      <point x="517" y="48"/>
      <point x="556" y="114" type="curve"/>
    </contour>
    <contour>
      <point x="294" y="273" type="line"/>
      <point x="556" y="273" type="line"/>
      <point x="556" y="395" type="line"/>
      <point x="294" y="395" type="line"/>
    </contour>
    <contour>
      <point x="556" y="114" type="line"/>
      <point x="556" y="395" type="line"/>
      <point x="403" y="395" type="line"/>
      <point x="403" y="104" type="line"/>
    </contour>
  </outline>
</glyph>
<glyph name="H" format="1">
  <advance width="600"/>
  <unicode hex="0048"/>
  <outline>
    <contour>
      <point x="213" y="0" type="line"/>
      <point x="213" y="700" type="line"/>
      <point x="60" y="700" type="line"/>
      <point x="60" y="0" type="line"/>
    </contour>
    <contour>
      <point x="142" y="303" type="line"/>
      <point x="454" y="303" type="line"/>
      <point x="454" y="425" type="line"/>
      <point x="142" y="425" type="line"/>
    </contour>
    <contour>
      <point x="539" y="0" type="line"/>
      <point x="539" y="700" type="line"/>
      <point x="386" y="700" type="line"/>
      <point x="386" y="0" type="line"/>
    </contour>
  </outline>
</glyph>
<glyph name="I" format="1">
  <advance width="600"/>
  <unicode hex="0049"/>
  <outline>
    <contour>
      <point x="375" y="0" type="line"/>
      <point x="375" y="700" type="line"/>
      <point x="222" y="700" type="line"/>
      <point x="222" y="0" type="line"/>
    </contour>
    <contour>
      <point x="93" y="0" type="line"/>
      <point x="505" y="0" type="line"/>
      <point x="505" y="122" type="line"/>
      <point x="93" y="122" type="line"/>
    </contour>
    <contour>
      <point x="93" y="578" type="line"/>
      <point x="505" y="578" type="line"/>
      <point x="505" y="700" type="line"/>
      <point x="93" y="700" type="line"/>
    </contour>
  </outline>
</glyph>
<glyph name="J" format="1">
  <advance width="600"/>
  <unicode hex="004A"/>
  <outline>
    <contour>
      <point x="333" y="700" type="line"/>
      <point x="333" y="196" type="line"/>
      <point x="486" y="171" type="line"/>
      <point x="486" y="700" type="line"/>
    </contour>
    <contour>
      <point x="56" y="43" type="line"/>
      <point x="89" y="10"/>
      <point x="166" y="-9"/>
      <point x="245" y="-9" type="curve"/>
      <point x="371" y="-9"/>
      <point x="486" y="53"/>
      <point x="486" y="171" type="curve"/>
      <point x="333" y="196" type="line"/>
      <point x="333" y="136"/>
      <point x="286" y="114"/>
      <point x="238" y="114" type="curve"/>
      <point x="201" y="114"/>
      <point x="158" y="132"/>
      <point x="140" y="146" type="curve"/>
    </contour>
    <contour>
      <point x="113" y="578" type="line"/>
      <point x="445" y="578" type="line"/>
      <point x="445" y="700" type="line"/>
      <point x="113" y="700" type="line"/>
    </contour>
  </outline>
</glyph>
<glyph name="K" format="1">
  <advance width="600"/>
  <unicode hex="004B"/>
  <outline>
    <contour>
      <point x="236" y="0" type="line"/>
      <point x="236" y="700" type="line"/>
      <point x="83" y="700" type="line"/>
      <point x="83" y="0" type="line"/>
    </contour>
    <contour>
      <point x="165" y="298" type="line"/>
      <point x="307" y="298" type="line"/>
      <point x="307" y="420" type="line"/>
      <point x="165" y="420" type="line"/>
    </contour>
    <contour>
      <point x="223" y="379" type="line"/>
      <point x="362" y="346" type="line"/>
      <point x="606" y="700" type="line"/>
      <point x="439" y="700" type="line"/>
    </contour>
    <contour>
      <point x="623" y="0" type="line"/>
      <point x="357" y="379" type="line"/>
      <point x="196" y="379" type="line"/>
      <point x="456" y="0" type="line"/>
    </contour>
  </outline>
</glyph>
<glyph name="L" format="1">
  <advance width="600"/>
  <unicode hex="004C"/>
  <outline>
    <contour>
      <point x="273" y="0" type="line"/>
      <point x="273" y="700" type="line"/>
      <point x="120" y="700" type="line"/>
      <point x="120" y="0" type="line"/>
    </contour>
    <contour>
      <point x="202" y="0" type="line"/>
      <point x="564" y="0" type="line"/>
      <point x="564" y="122" type="line"/>
      <point x="202" y="122" type="line"/>
    </contour>
  </outline>
</glyph>
<glyph name="M" format="1">
  <advance width="600"/>
  <unicode hex="004D"/>
  <outline>
    <contour>
      <point x="173" y="0" type="line"/>
      <point x="181" y="700" type="line"/>
      <point x="64" y="700" type="line"/>
      <point x="20" y="0" type="line"/>
    </contour>
    <contour>
      <point x="580" y="0" type="line"/>
      <point x="536" y="700" type="line"/>
      <point x="419" y="700" type="line"/>
      <point x="427" y="0" type="line"/>
    </contour>
    <contour>
      <point x="306" y="461" type="line"/>
      <point x="284" y="88" type="line"/>
      <point x="358" y="88" type="line"/>
      <point x="410" y="430" type="line"/>
      <point x="437" y="700" type="line"/>
      <point x="369" y="700" type="line"/>
    </contour>
    <contour>
      <point x="163" y="700" type="line"/>
      <point x="190" y="431" type="line"/>
      <point x="242" y="88" type="line"/>
      <point x="316" y="88" type="line"/>
      <point x="294" y="461" type="line"/>
      <point x="231" y="700" type="line"/>
    </contour>
  </outline>
</glyph>
<glyph name="N" format="1">
  <advance width="600"/>
  <unicode hex="004E"/>
  <outline>
    <contour>
      <point x="214" y="0" type="line"/>
      <point x="214" y="700" type="line"/>
      <point x="61" y="700" type="line"/>
      <point x="61" y="0" type="line"/>
    </contour>
    <contour>
      <point x="81" y="700" type="line"/>
      <point x="386" y="0" type="line"/>
      <point x="521" y="0" type="line"/>
      <point x="216" y="700" type="line"/>
    </contour>
    <contour>
      <point x="541" y="0" type="line"/>
      <point x="541" y="700" type="line"/>
      <point x="388" y="700" type="line"/>
      <point x="388" y="0" type="line"/>
    </contour>
  </outline>
</glyph>
<glyph name="P" format="1">
  <advance width="600"/>
  <unicode hex="0050"/>
  <outline>
    <contour>
      <point x="295" y="578" type="line" smooth="yes"/>
      <point x="360" y="578"/>
      <point x="396" y="563"/>
      <point x="396" y="469" type="curve" smooth="yes"/>
      <point x="396" y="365"/>
      <point x="360" y="352"/>
      <point x="295" y="352" type="curve" smooth="yes"/>
      <point x="244" y="352" type="line"/>
      <point x="244" y="578" type="line"/>
    </contour>
    <contour>
      <point x="406" y="230"/>
      <point x="551" y="248"/>
      <point x="551" y="479" type="curve" smooth="yes"/>
      <point x="551" y="690"/>
      <point x="406" y="700"/>
      <point x="322" y="700" type="curve" smooth="yes"/>
      <point x="91" y="700" type="line"/>
      <point x="91" y="0" type="line"/>
      <point x="244" y="0" type="line"/>
      <point x="244" y="230" type="line"/>
      <point x="322" y="230" type="line" smooth="yes"/>
    </contour>
  </outline>
</glyph>
<glyph name="Q" format="1">
  <advance width="600"/>
  <unicode hex="0051"/>
  <outline>
    <contour>
      <point x="453" y="-11"/>
      <point x="561" y="60"/>
      <point x="561" y="348" type="curve" smooth="yes"/>
      <point x="561" y="635"/>
      <point x="453" y="706"/>
      <point x="297" y="706" type="curve" smooth="yes"/>
      <point x="140" y="706"/>
      <point x="32" y="635"/>
      <point x="32" y="348" type="curve" smooth="yes"/>
      <point x="32" y="60"/>
      <point x="140" y="-11"/>
      <point x="297" y="-11" type="curve" smooth="yes"/>
    </contour>
    <contour>
      <point x="590" y="-9" type="line"/>
      <point x="426" y="156" type="line"/>
      <point x="322" y="51" type="line"/>
      <point x="484" y="-110" type="line"/>
    </contour>
    <contour>
      <point x="234" y="112"/>
      <point x="190" y="164"/>
      <point x="190" y="348" type="curve" smooth="yes"/>
      <point x="190" y="531"/>
      <point x="234" y="583"/>
      <point x="297" y="583" type="curve" smooth="yes"/>
      <point x="359" y="583"/>
      <point x="403" y="531"/>
      <point x="403" y="348" type="curve" smooth="yes"/>
      <point x="403" y="164"/>
      <point x="359" y="112"/>
      <point x="297" y="112" type="curve" smooth="yes"/>
    </contour>
  </outline>
</glyph>
<glyph name="R" format="1">
  <advance width="600"/>
  <unicode hex="0052"/>
  <outline>
    <contour>
      <point x="316" y="578" type="line" smooth="yes"/>
      <point x="376" y="578"/>
      <point x="397" y="551"/>
      <point x="397" y="497" type="curve" smooth="yes"/>
      <point x="397" y="430"/>
      <point x="376" y="402"/>
      <point x="316" y="402" type="curve" smooth="yes"/>
      <point x="235" y="402" type="line"/>
      <point x="235" y="578" type="line"/>
    </contour>
    <contour>
      <point x="420" y="280"/>
      <point x="551" y="305"/>
      <point x="551" y="499" type="curve" smooth="yes"/>
      <point x="551" y="683"/>
      <point x="420" y="700"/>
      <point x="336" y="700" type="curve" smooth="yes"/>
      <point x="82" y="700" type="line"/>
      <point x="82" y="0" type="line"/>
      <point x="235" y="0" type="line"/>
      <point x="235" y="280" type="line"/>
      <point x="336" y="280" type="line" smooth="yes"/>
    </contour>
    <contour>
      <point x="556" y="0" type="line"/>
      <point x="426" y="313" type="line"/>
      <point x="271" y="313" type="line"/>
      <point x="392" y="0" type="line"/>
    </contour>
  </outline>
</glyph>
<glyph name="S" format="1">
  <advance width="600"/>
  <unicode hex="0053"/>
  <outline>
    <contour>
      <point x="251" y="450"/>
      <point x="218" y="483"/>
      <point x="218" y="520" type="curve" smooth="yes"/>
      <point x="218" y="563"/>
      <point x="257" y="583"/>
      <point x="314" y="583" type="curve" smooth="yes"/>
      <point x="368" y="583"/>
      <point x="410" y="553"/>
      <point x="433" y="500" type="curve"/>
      <point x="554" y="565" type="line"/>
      <point x="518" y="657"/>
      <point x="424" y="706"/>
      <point x="314" y="706" type="curve" smooth="yes"/>
      <point x="186" y="706"/>
      <point x="59" y="660"/>
      <point x="59" y="523" type="curve" smooth="yes"/>
      <point x="59" y="370"/>
      <point x="213" y="319"/>
      <point x="283" y="295" type="curve" smooth="yes"/>
      <point x="349" y="272"/>
      <point x="404" y="247"/>
      <point x="404" y="194" type="curve" smooth="yes"/>
      <point x="404" y="136"/>
      <point x="353" y="112"/>
      <point x="293" y="112" type="curve" smooth="yes"/>
      <point x="224" y="112"/>
      <point x="178" y="147"/>
      <point x="155" y="197" type="curve"/>
      <point x="24" y="132" type="line"/>
      <point x="70" y="37"/>
      <point x="160" y="-11"/>
      <point x="293" y="-11" type="curve" smooth="yes"/>
      <point x="434" y="-11"/>
      <point x="562" y="39"/>
      <point x="562" y="197" type="curve" smooth="yes"/>
      <point x="562" y="359"/>
      <point x="388" y="401"/>
      <point x="304" y="431" type="curve" smooth="yes"/>
    </contour>
  </outline>
</glyph>
<glyph name="T" format="1">
  <advance width="600"/>
  <unicode hex="0054"/>
  <outline>
    <contour>
      <point x="375" y="0" type="line"/>
      <point x="375" y="700" type="line"/>
      <point x="222" y="700" type="line"/>
      <point x="222" y="0" type="line"/>
    </contour>
    <contour>
      <point x="53" y="578" type="line"/>
      <point x="545" y="578" type="line"/>
      <point x="545" y="700" type="line"/>
      <point x="53" y="700" type="line"/>
    </contour>
  </outline>
</glyph>
<glyph name="U" format="1">
  <advance width="600"/>
  <unicode hex="0055"/>
  <outline>
    <contour>
      <point x="397" y="700" type="line" smooth="yes"/>
      <point x="397" y="700"/>
      <point x="397" y="298"/>
      <point x="397" y="298" type="curve" smooth="yes"/>
      <point x="397" y="129"/>
      <point x="349" y="112"/>
      <point x="301" y="112" type="curve" smooth="yes"/>
      <point x="254" y="112"/>
      <point x="204" y="129"/>
      <point x="204" y="298" type="curve" smooth="yes"/>
      <point x="204" y="298"/>
      <point x="204" y="700"/>
      <point x="204" y="700" type="curve" smooth="yes"/>
      <point x="51" y="700" type="line" smooth="yes"/>
      <point x="51" y="700"/>
      <point x="51" y="268"/>
      <point x="51" y="268" type="curve" smooth="yes"/>
      <point x="51" y="35"/>
      <point x="160" y="-11"/>
      <point x="301" y="-11" type="curve" smooth="yes"/>
      <point x="443" y="-11"/>
      <point x="550" y="35"/>
      <point x="550" y="268" type="curve" smooth="yes"/>
      <point x="550" y="268"/>
      <point x="550" y="700"/>
      <point x="550" y="700" type="curve" smooth="yes"/>
    </contour>
  </outline>
</glyph>
<glyph name="V" format="1">
  <advance width="600"/>
  <unicode hex="0056"/>
  <outline>
    <contour>
      <point x="338" y="0" type="line"/>
      <point x="181" y="700" type="line"/>
      <point x="26" y="700" type="line"/>
      <point x="183" y="0" type="line"/>
    </contour>
    <contour>
      <point x="582" y="700" type="line"/>
      <point x="427" y="700" type="line"/>
      <point x="270" y="0" type="line"/>
      <point x="425" y="0" type="line"/>
    </contour>
    <contour>
      <point x="383" y="0" type="line"/>
      <point x="383" y="122" type="line"/>
      <point x="225" y="122" type="line"/>
      <point x="225" y="0" type="line"/>
    </contour>
  </outline>
</glyph>
<glyph name="W" format="1">
  <advance width="600"/>
  <unicode hex="0057"/>
  <outline>
    <contour>
      <point x="538" y="0" type="line"/>
      <point x="603" y="700" type="line"/>
      <point x="460" y="700" type="line"/>
      <point x="438" y="344" type="line"/>
      <point x="415" y="0" type="line"/>
    </contour>
    <contour>
      <point x="191" y="0" type="line"/>
      <point x="168" y="344" type="line"/>
      <point x="146" y="700" type="line"/>
      <point x="3" y="700" type="line"/>
      <point x="68" y="0" type="line"/>
    </contour>
    <contour>
      <point x="224" y="0" type="line"/>
      <point x="295" y="297" type="line"/>
      <point x="322" y="612" type="line"/>
      <point x="241" y="612" type="line"/>
      <point x="181" y="324" type="line"/>
      <point x="158" y="0" type="line"/>
    </contour>
    <contour>
      <point x="448" y="0" type="line"/>
      <point x="425" y="324" type="line"/>
      <point x="365" y="612" type="line"/>
      <point x="284" y="612" type="line"/>
      <point x="311" y="297" type="line"/>
      <point x="382" y="0" type="line"/>
    </contour>
  </outline>
</glyph>
<glyph name="X" format="1">
  <advance width="600"/>
  <unicode hex="0058"/>
  <outline>
    <contour>
      <point x="287" y="285" type="line"/>
      <point x="369" y="285" type="line"/>
      <point x="429" y="407" type="line"/>
      <point x="287" y="407" type="line"/>
    </contour>
    <contour>
      <point x="285" y="366" type="line"/>
      <point x="424" y="333" type="line"/>
      <point x="588" y="700" type="line"/>
      <point x="426" y="700" type="line"/>
    </contour>
    <contour>
      <point x="588" y="0" type="line"/>
      <point x="419" y="366" type="line"/>
      <point x="265" y="366" type="line"/>
      <point x="426" y="0" type="line"/>
    </contour>
    <contour>
      <point x="227" y="407" type="line"/>
      <point x="227" y="285" type="line"/>
      <point x="299" y="285" type="line"/>
      <point x="299" y="407" type="line"/>
    </contour>
    <contour>
      <point x="8" y="700" type="line"/>
      <point x="172" y="333" type="line"/>
      <point x="311" y="366" type="line"/>
      <point x="170" y="700" type="line"/>
    </contour>
    <contour>
      <point x="331" y="366" type="line"/>
      <point x="177" y="366" type="line"/>
      <point x="8" y="0" type="line"/>
      <point x="170" y="0" type="line"/>
    </contour>
  </outline>
</glyph>
<glyph name="Y" format="1">
  <advance width="600"/>
  <unicode hex="0059"/>
  <outline>
    <contour>
      <point x="301" y="420" type="line"/>
      <point x="377" y="257" type="line"/>
      <point x="585" y="700" type="line"/>
      <point x="418" y="700" type="line"/>
    </contour>
    <contour>
      <point x="15" y="700" type="line"/>
      <point x="226" y="252" type="line"/>
      <point x="299" y="420" type="line"/>
      <point x="182" y="700" type="line"/>
    </contour>
    <contour>
      <point x="377" y="0" type="line"/>
      <point x="377" y="420" type="line"/>
      <point x="224" y="420" type="line"/>
      <point x="224" y="0" type="line"/>
    </contour>
  </outline>
</glyph>
<glyph name="Z" format="1">
  <advance width="600"/>
  <unicode hex="005A"/>
  <outline>
    <contour>
      <point x="244" y="122" type="line"/>
      <point x="512" y="578" type="line"/>
      <point x="351" y="578" type="line"/>
      <point x="82" y="122" type="line"/>
    </contour>
    <contour>
      <point x="90" y="578" type="line"/>
      <point x="512" y="578" type="line"/>
      <point x="512" y="700" type="line"/>
      <point x="90" y="700" type="line"/>
    </contour>
    <contour>
      <point x="82" y="0" type="line"/>
      <point x="534" y="0" type="line"/>
      <point x="534" y="122" type="line"/>
      <point x="82" y="122" type="line"/>
    </contour>
  </outline>
</glyph>
<glyph name="bracketleft" format="1">
  <advance width="600"/>
  <unicode hex="005B"/>
  <outline>
    <contour>
      <point x="363" y="810" type="line"/>
      <point x="363" y="688" type="line"/>
      <point x="500" y="688" type="line"/>
      <point x="500" y="810" type="line"/>
    </contour>
    <contour>
      <point x="368" y="810" type="line"/>
      <point x="215" y="810" type="line"/>
      <point x="215" y="-210" type="line"/>
      <point x="368" y="-210" type="line"/>
    </contour>
    <contour>
      <point x="363" y="-88" type="line"/>
      <point x="363" y="-210" type="line"/>
      <point x="500" y="-210" type="line"/>
      <point x="500" y="-88" type="line"/>
    </contour>
  </outline>
</glyph>
<glyph name="backslash" format="1">
  <advance width="600"/>
  <unicode hex="005C"/>
  <outline>
    <contour>
      <point x="356" y="-142" type="line"/>
      <point x="496" y="-142" type="line"/>
      <point x="247" y="800" type="line"/>
      <point x="107" y="800" type="line"/>
    </contour>
  </outline>
</glyph>
<glyph name="asciicircum" format="1">
  <advance width="600"/>
  <unicode hex="005E"/>
  <outline>
    <contour>
      <point x="476" y="560" type="line"/>
      <point x="392" y="800" type="line"/>
      <point x="214" y="800" type="line"/>
      <point x="130" y="560" type="line"/>
      <point x="253" y="560" type="line"/>
      <point x="300" y="697" type="line"/>
      <point x="306" y="697" type="line"/>
      <point x="353" y="560" type="line"/>
    </contour>
  </outline>
</glyph>
<glyph name="underscore" format="1">
  <advance width="600"/>
  <unicode hex="005F"/>
  <outline>
    <contour>
      <point x="25" y="-160" type="line"/>
      <point x="575" y="-160" type="line"/>
      <point x="575" y="-38" type="line"/>
      <point x="25" y="-38" type="line"/>
    </contour>
  </outline>
</glyph>
<glyph name="grave" format="1">
  <advance width="600"/>
  <unicode hex="0060"/>
  <outline>
    <contour>
      <point x="325" y="760" type="line"/>
      <point x="150" y="760" type="line"/>
      <point x="304" y="609" type="line"/>
      <point x="438" y="609" type="line"/>
    </contour>
  </outline>
</glyph>
<glyph name="a" format="1">
  <advance width="600"/>
  <unicode hex="0061"/>
  <outline>
    <contour>
      <point x="517" y="360" type="line"/>
      <point x="517" y="461"/>
      <point x="426" y="512"/>
      <point x="300" y="512" type="curve"/>
      <point x="205" y="512"/>
      <point x="128" y="489"/>
      <point x="73" y="434" type="curve"/>
      <point x="166" y="345" type="line"/>
      <point x="191" y="373"/>
      <point x="225" y="390"/>
      <point x="290" y="390" type="curve"/>
      <point x="348" y="390"/>
      <point x="364" y="362"/>
      <point x="364" y="323" type="curve"/>
    </contour>
    <contour>
      <point x="405" y="-11"/>
      <point x="463" y="76"/>
      <point x="463" y="76" type="curve"/>
      <point x="394" y="167" type="line"/>
      <point x="378" y="142"/>
      <point x="355" y="109"/>
      <point x="293" y="109" type="curve"/>
      <point x="214" y="109"/>
      <point x="202" y="127"/>
      <point x="202" y="153" type="curve"/>
      <point x="54" y="153" type="line"/>
      <point x="54" y="41"/>
      <point x="127" y="-11"/>
      <point x="276" y="-11" type="curve"/>
    </contour>
    <contour>
      <point x="202" y="153" type="line"/>
      <point x="202" y="181"/>
      <point x="207" y="204"/>
      <point x="330" y="204" type="curve"/>
      <point x="296" y="316" type="line"/>
      <point x="124" y="316"/>
      <point x="54" y="264"/>
      <point x="54" y="153" type="curve"/>
    </contour>
    <contour>
      <point x="579" y="64" type="line"/>
      <point x="470" y="173" type="line"/>
      <point x="380" y="84" type="line"/>
      <point x="488" y="-23" type="line"/>
    </contour>
    <contour>
      <point x="458" y="204" type="line"/>
      <point x="458" y="316" type="line"/>
      <point x="296" y="316" type="line"/>
      <point x="330" y="204" type="line"/>
    </contour>
    <contour>
      <point x="517" y="294" type="line"/>
      <point x="364" y="294" type="line"/>
      <point x="364" y="116" type="line"/>
      <point x="517" y="89" type="line"/>
    </contour>
    <contour>
      <point x="517" y="209" type="line"/>
      <point x="517" y="360" type="line"/>
      <point x="364" y="323" type="line"/>
      <point x="364" y="209" type="line"/>
    </contour>
  </outline>
</glyph>
<glyph name="b" format="1">
  <advance width="600"/>
  <unicode hex="0062"/>
  <outline>
    <contour>
      <point x="180" y="0" type="line"/>
      <point x="225" y="71" type="line"/>
      <point x="225" y="800" type="line"/>
      <point x="72" y="800" type="line"/>
      <point x="72" y="0" type="line"/>
    </contour>
    <contour>
      <point x="203" y="272" type="line"/>
      <point x="216" y="335"/>
      <point x="243" y="388"/>
      <point x="305" y="388" type="curve" smooth="yes"/>
      <point x="377" y="388"/>
      <point x="396" y="340"/>
      <point x="396" y="251" type="curve"/>
      <point x="549" y="251" type="line"/>
      <point x="549" y="434"/>
      <point x="470" y="511"/>
      <point x="334" y="511" type="curve" smooth="yes"/>
      <point x="227" y="511"/>
      <point x="150" y="414"/>
      <point x="150" y="302" type="curve"/>
    </contour>
    <contour>
      <point x="150" y="98"/>
      <point x="217" y="-11"/>
      <point x="324" y="-11" type="curve" smooth="yes"/>
      <point x="460" y="-11"/>
      <point x="549" y="68"/>
      <point x="549" y="251" type="curve"/>
      <point x="396" y="251" type="line"/>
      <point x="396" y="162"/>
      <point x="367" y="112"/>
      <point x="295" y="112" type="curve" smooth="yes"/>
      <point x="233" y="112"/>
      <point x="206" y="167"/>
      <point x="203" y="240" type="curve"/>
      <point x="150" y="210" type="line"/>
    </contour>
  </outline>
</glyph>
<glyph name="c" format="1">
  <advance width="600"/>
  <unicode hex="0063"/>
  <outline>
    <contour>
      <point x="423" y="171" type="line"/>
      <point x="405" y="135"/>
      <point x="380" y="112"/>
      <point x="334" y="112" type="curve" smooth="yes"/>
      <point x="276" y="112"/>
      <point x="240" y="144"/>
      <point x="240" y="251" type="curve" smooth="yes"/>
      <point x="240" y="360"/>
      <point x="276" y="389"/>
      <point x="334" y="389" type="curve" smooth="yes"/>
      <point x="380" y="389"/>
      <point x="412" y="365"/>
      <point x="427" y="318" type="curve"/>
      <point x="563" y="393" type="line"/>
      <point x="515" y="483"/>
      <point x="438" y="512"/>
      <point x="337" y="512" type="curve" smooth="yes"/>
      <point x="200" y="512"/>
      <point x="82" y="444"/>
      <point x="82" y="251" type="curve" smooth="yes"/>
      <point x="82" y="60"/>
      <point x="200" y="-11"/>
      <point x="337" y="-11" type="curve" smooth="yes"/>
      <point x="439" y="-11"/>
      <point x="512" y="19"/>
      <point x="560" y="101" type="curve"/>
    </contour>
  </outline>
</glyph>
<glyph name="e" format="1">
  <advance width="600"/>
  <unicode hex="0065"/>
  <outline>
    <contour>
      <point x="406" y="161" type="line"/>
      <point x="380" y="121"/>
      <point x="353" y="112"/>
      <point x="304" y="112" type="curve" smooth="yes"/>
      <point x="241" y="112"/>
      <point x="212" y="152"/>
      <point x="212" y="241" type="curve" smooth="yes"/>
      <point x="212" y="334"/>
      <point x="230" y="391"/>
      <point x="307" y="391" type="curve" smooth="yes"/>
      <point x="384" y="391"/>
      <point x="394" y="338"/>
      <point x="396" y="309" type="curve"/>
      <point x="544" y="204" type="line"/>
      <point x="554" y="394"/>
      <point x="471" y="512"/>
      <point x="310" y="512" type="curve" smooth="yes"/>
      <point x="183" y="512"/>
      <point x="64" y="448"/>
      <point x="64" y="251" type="curve" smooth="yes"/>
      <point x="64" y="58"/>
      <point x="183" y="-11"/>
      <point x="307" y="-11" type="curve" smooth="yes"/>
      <point x="383" y="-11"/>
      <point x="479" y="15"/>
      <point x="528" y="94" type="curve"/>
    </contour>
    <contour>
      <point x="198" y="204" type="line"/>
      <point x="544" y="204" type="line"/>
      <point x="450" y="309" type="line"/>
      <point x="198" y="309" type="line"/>
    </contour>
  </outline>
</glyph>
<glyph name="f" format="1">
  <advance width="600"/>
  <unicode hex="0066"/>
  <outline>
    <contour>
      <point x="364" y="0" type="line"/>
      <point x="364" y="566" type="line"/>
      <point x="211" y="606" type="line"/>
      <point x="211" y="0" type="line"/>
    </contour>
    <contour>
      <point x="113" y="378" type="line"/>
      <point x="525" y="378" type="line"/>
      <point x="525" y="500" type="line"/>
      <point x="113" y="500" type="line"/>
    </contour>
    <contour>
      <point x="563" y="785" type="line"/>
      <point x="536" y="795"/>
      <point x="513" y="807"/>
      <point x="442" y="807" type="curve"/>
      <point x="306" y="807"/>
      <point x="211" y="744"/>
      <point x="211" y="606" type="curve"/>
      <point x="364" y="566" type="line"/>
      <point x="364" y="652"/>
      <point x="391" y="684"/>
      <point x="449" y="684" type="curve"/>
      <point x="478" y="684"/>
      <point x="499" y="681"/>
      <point x="515" y="675" type="curve"/>
    </contour>
  </outline>
</glyph>
<glyph name="g" format="1">
  <advance width="600"/>
  <unicode hex="0067"/>
  <outline>
    <contour>
      <point x="417" y="149"/>
      <point x="535" y="188"/>
      <point x="535" y="331" type="curve" smooth="yes"/>
      <point x="535" y="473"/>
      <point x="427" y="512"/>
      <point x="301" y="512" type="curve" smooth="yes"/>
      <point x="174" y="512"/>
      <point x="66" y="473"/>
      <point x="66" y="331" type="curve" smooth="yes"/>
      <point x="66" y="188"/>
      <point x="174" y="149"/>
      <point x="301" y="149" type="curve" smooth="yes"/>
    </contour>
    <contour>
      <point x="248" y="267"/>
      <point x="224" y="277"/>
      <point x="224" y="331" type="curve" smooth="yes"/>
      <point x="224" y="384"/>
      <point x="248" y="394"/>
      <point x="301" y="394" type="curve" smooth="yes"/>
      <point x="353" y="394"/>
      <point x="377" y="384"/>
      <point x="377" y="331" type="curve" smooth="yes"/>
      <point x="377" y="277"/>
      <point x="353" y="267"/>
      <point x="301" y="267" type="curve" smooth="yes"/>
    </contour>
    <contour>
      <point x="278" y="-1" type="line"/>
      <point x="288" y="101" type="line"/>
      <point x="284" y="101" type="line" smooth="yes"/>
      <point x="222" y="101"/>
      <point x="227" y="142"/>
      <point x="250" y="170" type="curve"/>
      <point x="175" y="199" type="line"/>
      <point x="150" y="181"/>
      <point x="85" y="161"/>
      <point x="85" y="92" type="curve" smooth="yes"/>
      <point x="85" y="17"/>
      <point x="209" y="-1"/>
      <point x="270" y="-1" type="curve" smooth="yes"/>
    </contour>
    <contour>
      <point x="55" y="-167"/>
      <point x="169" y="-202"/>
      <point x="307" y="-202" type="curve"/>
      <point x="307" y="-96" type="line"/>
      <point x="248" y="-96"/>
      <point x="214" y="-85"/>
      <point x="200" y="-58" type="curve" smooth="yes"/>
      <point x="187" y="-33"/>
      <point x="202" y="-1"/>
      <point x="223" y="17" type="curve"/>
      <point x="140" y="45" type="line"/>
      <point x="115" y="27"/>
      <point x="55" y="0"/>
      <point x="55" y="-69" type="curve" smooth="yes"/>
    </contour>
    <contour>
      <point x="566" y="45"/>
      <point x="520" y="101"/>
      <point x="396" y="101" type="curve"/>
      <point x="354" y="-1" type="line"/>
      <point x="405" y="-1"/>
      <point x="422" y="-21"/>
      <point x="414" y="-52" type="curve" smooth="yes"/>
      <point x="405" y="-86"/>
      <point x="348" y="-96"/>
      <point x="307" y="-96" type="curve"/>
      <point x="307" y="-202" type="line"/>
      <point x="475" y="-202"/>
      <point x="544" y="-133"/>
      <point x="555" y="-43" type="curve" smooth="yes"/>
    </contour>
    <contour>
      <point x="396" y="101" type="line"/>
      <point x="396" y="101"/>
      <point x="395" y="101"/>
      <point x="395" y="101" type="curve" smooth="yes"/>
      <point x="288" y="101" type="line"/>
      <point x="278" y="-1" type="line"/>
      <point x="354" y="-1" type="line"/>
    </contour>
    <contour>
      <point x="364" y="401" type="line"/>
      <point x="447" y="319" type="line"/>
      <point x="588" y="459" type="line"/>
      <point x="504" y="539" type="line"/>
    </contour>
  </outline>
</glyph>
<glyph name="h" format="1">
  <advance width="600"/>
  <unicode hex="0068"/>
  <outline>
    <contour>
      <point x="208" y="0" type="line"/>
      <point x="208" y="800" type="line"/>
      <point x="55" y="800" type="line"/>
      <point x="55" y="0" type="line"/>
    </contour>
    <contour>
      <point x="198" y="302" type="line"/>
      <point x="201" y="316"/>
      <point x="241" y="388"/>
      <point x="303" y="388" type="curve" smooth="yes"/>
      <point x="365" y="388"/>
      <point x="379" y="331"/>
      <point x="379" y="232" type="curve" smooth="yes"/>
      <point x="379" y="0" type="line"/>
      <point x="532" y="0" type="line"/>
      <point x="532" y="302" type="line" smooth="yes"/>
      <point x="532" y="465"/>
      <point x="465" y="511"/>
      <point x="349" y="511" type="curve" smooth="yes"/>
      <point x="232" y="511"/>
      <point x="133" y="434"/>
      <point x="133" y="322" type="curve"/>
    </contour>
  </outline>
</glyph>
<glyph name="i" format="1">
  <advance width="600"/>
  <unicode hex="0069"/>
  <outline>
    <contour>
      <point x="111" y="378" type="line"/>
      <point x="234" y="378" type="line"/>
      <point x="234" y="500" type="line"/>
      <point x="111" y="500" type="line"/>
    </contour>
    <contour>
      <point x="382" y="56" type="line"/>
      <point x="382" y="500" type="line"/>
      <point x="229" y="500" type="line"/>
      <point x="229" y="31" type="line"/>
    </contour>
    <contour>
      <point x="229" y="0" type="line"/>
      <point x="491" y="0" type="line"/>
      <point x="491" y="122" type="line"/>
      <point x="229" y="122" type="line"/>
    </contour>
    <contour>
      <point x="356" y="605"/>
      <point x="397" y="646"/>
      <point x="397" y="698" type="curve" smooth="yes"/>
      <point x="397" y="750"/>
      <point x="356" y="791"/>
      <point x="304" y="791" type="curve" smooth="yes"/>
      <point x="252" y="791"/>
      <point x="211" y="750"/>
      <point x="211" y="698" type="curve" smooth="yes"/>
      <point x="211" y="646"/>
      <point x="252" y="605"/>
      <point x="304" y="605" type="curve" smooth="yes"/>
    </contour>
  </outline>
</glyph>
<glyph name="j" format="1">
  <advance width="600"/>
  <unicode hex="006A"/>
  <outline>
    <contour>
      <point x="307" y="500" type="line"/>
      <point x="307" y="18" type="line"/>
      <point x="460" y="-12" type="line"/>
      <point x="460" y="500" type="line"/>
    </contour>
    <contour>
      <point x="122" y="-178" type="line"/>
      <point x="146" y="-184"/>
      <point x="177" y="-192"/>
      <point x="229" y="-192" type="curve"/>
      <point x="385" y="-192"/>
      <point x="460" y="-130"/>
      <point x="460" y="-12" type="curve"/>
      <point x="307" y="18" type="line"/>
      <point x="307" y="-38"/>
      <point x="280" y="-69"/>
      <point x="222" y="-69" type="curve"/>
      <point x="201" y="-69"/>
      <point x="171" y="-64"/>
      <point x="155" y="-58" type="curve"/>
    </contour>
    <contour>
      <point x="159" y="378" type="line"/>
      <point x="409" y="378" type="line"/>
      <point x="409" y="500" type="line"/>
      <point x="159" y="500" type="line"/>
    </contour>
    <contour>
      <point x="430" y="605"/>
      <point x="471" y="646"/>
      <point x="471" y="698" type="curve" smooth="yes"/>
      <point x="471" y="750"/>
      <point x="430" y="791"/>
      <point x="378" y="791" type="curve" smooth="yes"/>
      <point x="326" y="791"/>
      <point x="285" y="750"/>
      <point x="285" y="698" type="curve" smooth="yes"/>
      <point x="285" y="646"/>
      <point x="326" y="605"/>
      <point x="378" y="605" type="curve" smooth="yes"/>
    </contour>
  </outline>
</glyph>
<glyph name="k" format="1">
  <advance width="600"/>
  <unicode hex="006B"/>
  <outline>
    <contour>
      <point x="215" y="0" type="line"/>
      <point x="215" y="800" type="line"/>
      <point x="62" y="800" type="line"/>
      <point x="62" y="0" type="line"/>
    </contour>
    <contour>
      <point x="174" y="198" type="line"/>
      <point x="296" y="198" type="line"/>
      <point x="296" y="320" type="line"/>
      <point x="174" y="320" type="line"/>
    </contour>
    <contour>
      <point x="202" y="279" type="line"/>
      <point x="344" y="246" type="line"/>
      <point x="581" y="500" type="line"/>
      <point x="400" y="500" type="line"/>
    </contour>
    <contour>
      <point x="598" y="0" type="line"/>
      <point x="344" y="279" type="line"/>
      <point x="175" y="279" type="line"/>
      <point x="417" y="0" type="line"/>
    </contour>
  </outline>
</glyph>
<glyph name="l" format="1">
  <advance width="600"/>
  <unicode hex="006C"/>
  <outline>
    <contour>
      <point x="373" y="172" type="line"/>
      <point x="373" y="800" type="line"/>
      <point x="220" y="800" type="line"/>
      <point x="220" y="122" type="line"/>
    </contour>
    <contour>
      <point x="463" y="-11"/>
      <point x="517" y="-1"/>
      <point x="525" y="0" type="curve"/>
      <point x="525" y="123" type="line"/>
      <point x="520" y="121"/>
      <point x="460" y="106"/>
      <point x="421" y="106" type="curve"/>
      <point x="394" y="106"/>
      <point x="373" y="109"/>
      <point x="373" y="172" type="curve"/>
      <point x="220" y="122" type="line"/>
      <point x="220" y="9"/>
      <point x="304" y="-11"/>
      <point x="396" y="-11" type="curve"/>
    </contour>
    <contour>
      <point x="225" y="678" type="line"/>
      <point x="225" y="800" type="line"/>
      <point x="78" y="800" type="line"/>
      <point x="78" y="678" type="line"/>
    </contour>
  </outline>
</glyph>
<glyph name="m" format="1">
  <advance width="600"/>
  <unicode hex="006D"/>
  <outline>
    <contour>
      <point x="595" y="0" type="line"/>
      <point x="595" y="322" type="line" smooth="yes"/>
      <point x="595" y="485"/>
      <point x="521" y="511"/>
      <point x="455" y="511" type="curve" smooth="yes"/>
      <point x="380" y="511"/>
      <point x="311" y="424"/>
      <point x="311" y="312" type="curve"/>
      <point x="364" y="332" type="line"/>
      <point x="371" y="361"/>
      <point x="401" y="388"/>
      <point x="423" y="388" type="curve" smooth="yes"/>
      <point x="445" y="388"/>
      <point x="452" y="373"/>
      <point x="452" y="314" type="curve" smooth="yes"/>
      <point x="452" y="0" type="line"/>
    </contour>
    <contour>
      <point x="176" y="0" type="line"/>
      <point x="176" y="402" type="line"/>
      <point x="176" y="402"/>
      <point x="131" y="500"/>
      <point x="131" y="500" type="curve"/>
      <point x="32" y="500" type="line"/>
      <point x="32" y="500"/>
      <point x="32" y="436"/>
      <point x="32" y="345" type="curve"/>
      <point x="32" y="0" type="line"/>
    </contour>
    <contour>
      <point x="376" y="0" type="line"/>
      <point x="376" y="369" type="line" smooth="yes"/>
      <point x="376" y="369"/>
      <point x="367" y="392"/>
      <point x="367" y="392" type="curve" smooth="yes"/>
      <point x="367" y="475"/>
      <point x="311" y="511"/>
      <point x="251" y="511" type="curve" smooth="yes"/>
      <point x="173" y="511"/>
      <point x="108" y="424"/>
      <point x="108" y="312" type="curve"/>
      <point x="166" y="332" type="line"/>
      <point x="173" y="361"/>
      <point x="195" y="388"/>
      <point x="217" y="388" type="curve" smooth="yes"/>
      <point x="239" y="388"/>
      <point x="252" y="373"/>
      <point x="252" y="314" type="curve" smooth="yes"/>
      <point x="252" y="0" type="line"/>
    </contour>
  </outline>
</glyph>
<glyph name="n" format="1">
  <advance width="600"/>
  <unicode hex="006E"/>
  <outline>
    <contour>
      <point x="214" y="312" type="line"/>
      <point x="227" y="345"/>
      <point x="253" y="388"/>
      <point x="315" y="388" type="curve" smooth="yes"/>
      <point x="371" y="388"/>
      <point x="381" y="351"/>
      <point x="381" y="282" type="curve" smooth="yes"/>
      <point x="381" y="0" type="line"/>
      <point x="534" y="0" type="line"/>
      <point x="534" y="282" type="line" smooth="yes"/>
      <point x="534" y="445"/>
      <point x="445" y="511"/>
      <point x="335" y="511" type="curve" smooth="yes"/>
      <point x="218" y="511"/>
      <point x="151" y="424"/>
      <point x="151" y="312" type="curve"/>
    </contour>
    <contour>
      <point x="71" y="500" type="line"/>
      <point x="71" y="500"/>
      <point x="71" y="436"/>
      <point x="71" y="345" type="curve"/>
      <point x="71" y="0" type="line"/>
      <point x="224" y="0" type="line"/>
      <point x="224" y="402" type="line"/>
      <point x="224" y="402"/>
      <point x="174" y="500"/>
      <point x="174" y="500" type="curve"/>
    </contour>
  </outline>
</glyph>
<glyph name="o" format="1">
  <advance width="600"/>
  <unicode hex="006F"/>
  <outline>
    <contour>
      <point x="429" y="-11"/>
      <point x="557" y="58"/>
      <point x="557" y="251" type="curve" smooth="yes"/>
      <point x="557" y="443"/>
      <point x="429" y="512"/>
      <point x="303" y="512" type="curve" smooth="yes"/>
      <point x="176" y="512"/>
      <point x="48" y="443"/>
      <point x="48" y="251" type="curve" smooth="yes"/>
      <point x="48" y="58"/>
      <point x="176" y="-11"/>
      <point x="303" y="-11" type="curve" smooth="yes"/>
    </contour>
    <contour>
      <point x="270" y="112"/>
      <point x="206" y="127"/>
      <point x="206" y="251" type="curve" smooth="yes"/>
      <point x="206" y="374"/>
      <point x="270" y="389"/>
      <point x="303" y="389" type="curve" smooth="yes"/>
      <point x="335" y="389"/>
      <point x="399" y="374"/>
      <point x="399" y="251" type="curve" smooth="yes"/>
      <point x="399" y="127"/>
      <point x="335" y="112"/>
      <point x="303" y="112" type="curve" smooth="yes"/>
    </contour>
  </outline>
</glyph>
<glyph name="p" format="1">
  <advance width="600"/>
  <unicode hex="0070"/>
  <outline>
    <contour>
      <point x="71" y="-200" type="line"/>
      <point x="224" y="-200" type="line"/>
      <point x="224" y="429" type="line"/>
      <point x="174" y="500" type="line"/>
      <point x="71" y="500" type="line"/>
    </contour>
    <contour>
      <point x="159" y="96"/>
      <point x="216" y="-11"/>
      <point x="333" y="-11" type="curve" smooth="yes"/>
      <point x="469" y="-11"/>
      <point x="548" y="66"/>
      <point x="548" y="249" type="curve"/>
      <point x="395" y="249" type="line"/>
      <point x="395" y="140"/>
      <point x="355" y="112"/>
      <point x="293" y="112" type="curve" smooth="yes"/>
      <point x="231" y="112"/>
      <point x="213" y="145"/>
      <point x="209" y="188" type="curve"/>
      <point x="159" y="208" type="line"/>
    </contour>
    <contour>
      <point x="209" y="300" type="line"/>
      <point x="212" y="343"/>
      <point x="241" y="389"/>
      <point x="303" y="389" type="curve" smooth="yes"/>
      <point x="365" y="389"/>
      <point x="395" y="358"/>
      <point x="395" y="249" type="curve"/>
      <point x="548" y="249" type="line"/>
      <point x="548" y="432"/>
      <point x="479" y="512"/>
      <point x="343" y="512" type="curve" smooth="yes"/>
      <point x="236" y="512"/>
      <point x="159" y="394"/>
      <point x="159" y="290" type="curve"/>
    </contour>
  </outline>
</glyph>
<glyph name="r" format="1">
  <advance width="600"/>
  <unicode hex="0072"/>
  <outline>
    <contour>
      <point x="348" y="332" type="line"/>
      <point x="361" y="365"/>
      <point x="407" y="386"/>
      <point x="469" y="386" type="curve" smooth="yes"/>
      <point x="509" y="386"/>
      <point x="538" y="371"/>
      <point x="542" y="366" type="curve"/>
      <point x="583" y="490" type="line"/>
      <point x="574" y="496"/>
      <point x="554" y="512"/>
      <point x="489" y="512" type="curve" smooth="yes"/>
      <point x="362" y="512"/>
      <point x="285" y="424"/>
      <point x="285" y="312" type="curve"/>
    </contour>
    <contour>
      <point x="499" y="0" type="line"/>
      <point x="499" y="122" type="line"/>
      <point x="103" y="122" type="line"/>
      <point x="103" y="0" type="line"/>
    </contour>
    <contour>
      <point x="358" y="0" type="line"/>
      <point x="358" y="402" type="line"/>
      <point x="308" y="500" type="line"/>
      <point x="205" y="500" type="line"/>
      <point x="205" y="345" type="line"/>
      <point x="205" y="0" type="line"/>
    </contour>
    <contour>
      <point x="262" y="378" type="line"/>
      <point x="262" y="500" type="line"/>
      <point x="103" y="500" type="line"/>
      <point x="103" y="378" type="line"/>
    </contour>
  </outline>
</glyph>
<glyph name="s" format="1">
  <advance width="600"/>
  <unicode hex="0073"/>
  <outline>
    <contour>
      <point x="432" y="-11"/>
      <point x="537" y="30"/>
      <point x="539" y="138" type="curve" smooth="yes"/>
      <point x="541" y="266"/>
      <point x="368" y="302"/>
      <point x="304" y="319" type="curve" smooth="yes"/>
      <point x="271" y="328"/>
      <point x="237" y="338"/>
      <point x="237" y="363" type="curve" smooth="yes"/>
      <point x="237" y="386"/>
      <point x="271" y="400"/>
      <point x="317" y="399" type="curve" smooth="yes"/>
      <point x="362" y="398"/>
      <point x="400" y="378"/>
      <point x="423" y="341" type="curve"/>
      <point x="530" y="413" type="line"/>
      <point x="487" y="479"/>
      <point x="413" y="512"/>
      <point x="311" y="512" type="curve" smooth="yes"/>
      <point x="196" y="512"/>
      <point x="89" y="471"/>
      <point x="91" y="379" type="curve" smooth="yes"/>
      <point x="94" y="260"/>
      <point x="230" y="218"/>
      <point x="291" y="202" type="curve" smooth="yes"/>
      <point x="325" y="193"/>
      <point x="392" y="177"/>
      <point x="392" y="148" type="curve" smooth="yes"/>
      <point x="392" y="122"/>
      <point x="359" y="108"/>
      <point x="309" y="108" type="curve" smooth="yes"/>
      <point x="248" y="108"/>
      <point x="192" y="131"/>
      <point x="171" y="167" type="curve"/>
      <point x="51" y="90" type="line"/>
      <point x="95" y="25"/>
      <point x="187" y="-11"/>
      <point x="302" y="-11" type="curve" smooth="yes"/>
    </contour>
  </outline>
</glyph>
<glyph name="t" format="1">
  <advance width="600"/>
  <unicode hex="0074"/>
  <outline>
    <contour>
      <point x="375" y="0" type="line"/>
      <point x="375" y="680" type="line"/>
      <point x="222" y="680" type="line"/>
      <point x="222" y="0" type="line"/>
    </contour>
    <contour>
      <point x="487" y="0" type="line"/>
      <point x="487" y="122" type="line"/>
      <point x="294" y="122" type="line"/>
      <point x="294" y="0" type="line"/>
    </contour>
    <contour>
      <point x="527" y="378" type="line"/>
      <point x="527" y="500" type="line"/>
      <point x="102" y="500" type="line"/>
      <point x="102" y="378" type="line"/>
    </contour>
  </outline>
</glyph>
<glyph name="u" format="1">
  <advance width="600"/>
  <unicode hex="0075"/>
  <outline>
    <contour>
      <point x="384" y="-10"/>
      <point x="441" y="77"/>
      <point x="441" y="189" type="curve"/>
      <point x="398" y="189" type="line"/>
      <point x="385" y="156"/>
      <point x="359" y="113"/>
      <point x="287" y="113" type="curve" smooth="yes"/>
      <point x="235" y="113"/>
      <point x="215" y="160"/>
      <point x="215" y="249" type="curve" smooth="yes"/>
      <point x="215" y="501" type="line"/>
      <point x="62" y="501" type="line"/>
      <point x="62" y="219" type="line" smooth="yes"/>
      <point x="62" y="56"/>
      <point x="131" y="-10"/>
      <point x="257" y="-10" type="curve" smooth="yes"/>
    </contour>
    <contour>
      <point x="522" y="0" type="line" smooth="yes"/>
      <point x="522" y="0"/>
      <point x="521" y="101"/>
      <point x="521" y="101" type="curve"/>
      <point x="521" y="501" type="line"/>
      <point x="368" y="501" type="line"/>
      <point x="368" y="99" type="line"/>
      <point x="368" y="99"/>
      <point x="408" y="0"/>
      <point x="408" y="0" type="curve"/>
    </contour>
  </outline>
</glyph>
<glyph name="v" format="1">
  <advance width="600"/>
  <unicode hex="0076"/>
  <outline>
    <contour>
      <point x="68" y="500" type="line"/>
      <point x="190" y="0" type="line"/>
      <point x="327" y="0" type="line"/>
      <point x="225" y="500" type="line"/>
    </contour>
    <contour>
      <point x="379" y="500" type="line"/>
      <point x="277" y="0" type="line"/>
      <point x="414" y="0" type="line"/>
      <point x="536" y="500" type="line"/>
    </contour>
    <contour>
      <point x="372" y="0" type="line"/>
      <point x="372" y="122" type="line"/>
      <point x="232" y="122" type="line"/>
      <point x="232" y="0" type="line"/>
    </contour>
  </outline>
</glyph>
<glyph name="w" format="1">
  <advance width="600"/>
  <unicode hex="0077"/>
  <outline>
    <contour>
      <point x="74" y="0" type="line"/>
      <point x="194" y="0" type="line"/>
      <point x="146" y="500" type="line"/>
      <point x="1" y="500" type="line"/>
    </contour>
    <contour>
      <point x="404" y="0" type="line"/>
      <point x="524" y="0" type="line"/>
      <point x="597" y="500" type="line"/>
      <point x="452" y="500" type="line"/>
    </contour>
    <contour>
      <point x="357" y="500" type="line"/>
      <point x="241" y="500" type="line"/>
      <point x="137" y="0" type="line"/>
      <point x="236" y="0" type="line"/>
    </contour>
    <contour>
      <point x="461" y="0" type="line"/>
      <point x="357" y="500" type="line"/>
      <point x="241" y="500" type="line"/>
      <point x="362" y="0" type="line"/>
    </contour>
  </outline>
</glyph>
<glyph name="x" format="1">
  <advance width="600"/>
  <unicode hex="0078"/>
  <outline>
    <contour>
      <point x="286" y="273" type="line"/>
      <point x="406" y="240" type="line"/>
      <point x="571" y="500" type="line"/>
      <point x="414" y="500" type="line"/>
    </contour>
    <contour>
      <point x="274" y="192" type="line"/>
      <point x="366" y="192" type="line"/>
      <point x="366" y="314" type="line"/>
      <point x="274" y="314" type="line"/>
    </contour>
    <contour>
      <point x="571" y="0" type="line"/>
      <point x="401" y="273" type="line"/>
      <point x="262" y="273" type="line"/>
      <point x="414" y="0" type="line"/>
    </contour>
    <contour>
      <point x="224" y="314" type="line"/>
      <point x="224" y="192" type="line"/>
      <point x="316" y="192" type="line"/>
      <point x="316" y="314" type="line"/>
    </contour>
    <contour>
      <point x="19" y="500" type="line"/>
      <point x="184" y="240" type="line"/>
      <point x="304" y="273" type="line"/>
      <point x="176" y="500" type="line"/>
    </contour>
    <contour>
      <point x="328" y="273" type="line"/>
      <point x="189" y="273" type="line"/>
      <point x="19" y="0" type="line"/>
      <point x="176" y="0" type="line"/>
    </contour>
  </outline>
</glyph>
<glyph name="y" format="1">
  <advance width="600"/>
  <unicode hex="0079"/>
  <outline>
    <contour>
      <point x="42" y="500" type="line"/>
      <point x="224" y="0" type="line"/>
      <point x="321" y="84" type="line"/>
      <point x="209" y="500" type="line"/>
    </contour>
    <contour>
      <point x="376" y="500" type="line"/>
      <point x="264" y="84" type="line"/>
      <point x="371" y="0" type="line"/>
      <point x="543" y="500" type="line"/>
    </contour>
    <contour>
      <point x="55" y="-175" type="line"/>
      <point x="62" y="-178"/>
      <point x="97" y="-192"/>
      <point x="148" y="-192" type="curve"/>
      <point x="269" y="-192"/>
      <point x="327" y="-118"/>
      <point x="371" y="0" type="curve"/>
      <point x="295" y="84" type="line"/>
      <point x="226" y="11" type="line"/>
      <point x="196" y="-60"/>
      <point x="165" y="-67"/>
      <point x="133" y="-67" type="curve"/>
      <point x="120" y="-67"/>
      <point x="101" y="-60"/>
      <point x="101" y="-60" type="curve"/>
    </contour>
  </outline>
</glyph>
<glyph name="z" format="1">
  <advance width="600"/>
  <unicode hex="007A"/>
  <outline>
    <contour>
      <point x="276" y="122" type="line"/>
      <point x="504" y="378" type="line"/>
      <point x="333" y="378" type="line"/>
      <point x="103" y="122" type="line"/>
    </contour>
    <contour>
      <point x="111" y="378" type="line"/>
      <point x="504" y="378" type="line"/>
      <point x="504" y="500" type="line"/>
      <point x="111" y="500" type="line"/>
    </contour>
    <contour>
      <point x="103" y="0" type="line"/>
      <point x="516" y="0" type="line"/>
      <point x="516" y="122" type="line"/>
      <point x="103" y="122" type="line"/>
    </contour>
  </outline>
</glyph>
<glyph name="braceleft" format="1">
  <advance width="600"/>
  <unicode hex="007B"/>
  <outline>
    <contour>
      <point x="223" y="315" type="line" smooth="yes"/>
      <point x="289" y="315"/>
      <point x="374" y="318"/>
      <point x="374" y="436" type="curve" smooth="yes"/>
      <point x="374" y="576" type="line" smooth="yes"/>
      <point x="374" y="662"/>
      <point x="402" y="694"/>
      <point x="459" y="694" type="curve" smooth="yes"/>
      <point x="487" y="694" type="line"/>
      <point x="487" y="817" type="line"/>
      <point x="432" y="817" type="line" smooth="yes"/>
      <point x="316" y="817"/>
      <point x="231" y="753"/>
      <point x="231" y="635" type="curve" smooth="yes"/>
      <point x="231" y="476" type="line" smooth="yes"/>
      <point x="231" y="410"/>
      <point x="213" y="378"/>
      <point x="166" y="378" type="curve" smooth="yes"/>
      <point x="153" y="378" type="line"/>
      <point x="153" y="315" type="line"/>
    </contour>
    <contour>
      <point x="153" y="255" type="line"/>
      <point x="166" y="255" type="line" smooth="yes"/>
      <point x="213" y="255"/>
      <point x="231" y="223"/>
      <point x="231" y="157" type="curve" smooth="yes"/>
      <point x="231" y="-2" type="line" smooth="yes"/>
      <point x="231" y="-120"/>
      <point x="316" y="-184"/>
      <point x="432" y="-184" type="curve" smooth="yes"/>
      <point x="487" y="-184" type="line"/>
      <point x="487" y="-61" type="line"/>
      <point x="459" y="-61" type="line" smooth="yes"/>
      <point x="402" y="-61"/>
      <point x="374" y="-29"/>
      <point x="374" y="57" type="curve" smooth="yes"/>
      <point x="374" y="197" type="line" smooth="yes"/>
      <point x="374" y="315"/>
      <point x="289" y="318"/>
      <point x="223" y="318" type="curve" smooth="yes"/>
      <point x="153" y="318" type="line"/>
    </contour>
  </outline>
</glyph>
<glyph name="bar" format="1">
  <advance width="600"/>
  <unicode hex="007C"/>
  <outline>
    <contour>
      <point x="235" y="-130" type="line"/>
      <point x="360" y="-130" type="line"/>
      <point x="360" y="800" type="line"/>
      <point x="235" y="800" type="line"/>
    </contour>
  </outline>
</glyph>
<glyph name="cent" format="1">
  <advance width="600"/>
  <unicode hex="00A2"/>
  <outline>
    <contour>
      <point x="409" y="85"/>
      <point x="489" y="127"/>
      <point x="537" y="209" type="curve"/>
      <point x="411" y="274" type="line"/>
      <point x="391" y="240"/>
      <point x="359" y="208"/>
      <point x="304" y="208" type="curve" smooth="yes"/>
      <point x="231" y="208"/>
      <point x="190" y="240"/>
      <point x="190" y="347" type="curve" smooth="yes"/>
      <point x="190" y="456"/>
      <point x="231" y="485"/>
      <point x="304" y="485" type="curve" smooth="yes"/>
      <point x="358" y="485"/>
      <point x="389" y="454"/>
      <point x="409" y="412" type="curve"/>
      <point x="535" y="477" type="line"/>
      <point x="487" y="567"/>
      <point x="408" y="608"/>
      <point x="307" y="608" type="curve" smooth="yes"/>
      <point x="140" y="608"/>
      <point x="32" y="540"/>
      <point x="32" y="347" type="curve" smooth="yes"/>
      <point x="32" y="156"/>
      <point x="140" y="85"/>
      <point x="307" y="85" type="curve" smooth="yes"/>
    </contour>
    <contour>
      <point x="360" y="0" type="line"/>
      <point x="360" y="120" type="line"/>
      <point x="225" y="120" type="line"/>
      <point x="225" y="0" type="line"/>
    </contour>
    <contour>
      <point x="360" y="580" type="line"/>
      <point x="360" y="700" type="line"/>
      <point x="225" y="700" type="line"/>
      <point x="225" y="580" type="line"/>
    </contour>
  </outline>
</glyph>
<glyph name="sterling" format="1">
  <advance width="600"/>
  <unicode hex="00A3"/>
  <outline>
    <contour>
      <point x="252" y="128"/>
      <point x="310" y="184"/>
      <point x="295" y="288" type="curve" smooth="yes"/>
      <point x="286" y="350"/>
      <point x="252" y="440"/>
      <point x="252" y="505" type="curve" smooth="yes"/>
      <point x="252" y="550"/>
      <point x="281" y="583"/>
      <point x="345" y="583" type="curve" smooth="yes"/>
      <point x="408" y="583"/>
      <point x="429" y="565"/>
      <point x="445" y="531" type="curve"/>
      <point x="557" y="595" type="line"/>
      <point x="530" y="656"/>
      <point x="466" y="706"/>
      <point x="345" y="706" type="curve" smooth="yes"/>
      <point x="213" y="706"/>
      <point x="93" y="626"/>
      <point x="93" y="505" type="curve" smooth="yes"/>
      <point x="93" y="426"/>
      <point x="132" y="348"/>
      <point x="145" y="287" type="curve" smooth="yes"/>
      <point x="163" y="201"/>
      <point x="108" y="116"/>
      <point x="60" y="78" type="curve"/>
      <point x="185" y="89" type="line"/>
    </contour>
    <contour>
      <point x="107" y="-17"/>
      <point x="182" y="12"/>
      <point x="261" y="11" type="curve" smooth="yes"/>
      <point x="315" y="10"/>
      <point x="357" y="-10"/>
      <point x="423" y="-13" type="curve" smooth="yes"/>
      <point x="498" y="-16"/>
      <point x="545" y="1"/>
      <point x="545" y="1" type="curve"/>
      <point x="509" y="123" type="line"/>
      <point x="509" y="123"/>
      <point x="487" y="102"/>
      <point x="423" y="105" type="curve" smooth="yes"/>
      <point x="367" y="108"/>
      <point x="359" y="123"/>
      <point x="294" y="125" type="curve" smooth="yes"/>
      <point x="236" y="127"/>
      <point x="206" y="104"/>
      <point x="191" y="93" type="curve"/>
      <point x="191" y="93"/>
      <point x="63" y="78"/>
      <point x="60" y="78" type="curve"/>
      <point x="96" y="-20" type="line"/>
    </contour>
    <contour>
      <point x="455" y="292" type="line"/>
      <point x="455" y="404" type="line"/>
      <point x="36" y="404" type="line"/>
      <point x="36" y="292" type="line"/>
    </contour>
  </outline>
</glyph>
<glyph name="currency" format="1">
  <advance width="600"/>
  <unicode hex="00A4"/>
  <outline>
    <contour>
      <point x="428" y="169"/>
      <point x="526" y="232"/>
      <point x="526" y="370" type="curve" smooth="yes"/>
      <point x="526" y="508"/>
      <point x="428" y="570"/>
      <point x="303" y="570" type="curve" smooth="yes"/>
      <point x="177" y="570"/>
      <point x="79" y="508"/>
      <point x="79" y="370" type="curve" smooth="yes"/>
      <point x="79" y="232"/>
      <point x="177" y="169"/>
      <point x="303" y="169" type="curve" smooth="yes"/>
    </contour>
    <contour>
      <point x="209" y="203" type="line"/>
      <point x="137" y="275" type="line"/>
      <point x="34" y="174" type="line"/>
      <point x="106" y="100" type="line"/>
    </contour>
    <contour>
      <point x="246" y="284"/>
      <point x="218" y="315"/>
      <point x="218" y="370" type="curve" smooth="yes"/>
      <point x="218" y="424"/>
      <point x="246" y="455"/>
      <point x="303" y="455" type="curve" smooth="yes"/>
      <point x="359" y="455"/>
      <point x="387" y="424"/>
      <point x="387" y="370" type="curve" smooth="yes"/>
      <point x="387" y="315"/>
      <point x="359" y="284"/>
      <point x="303" y="284" type="curve" smooth="yes"/>
    </contour>
    <contour>
      <point x="571" y="176" type="line"/>
      <point x="468" y="277" type="line"/>
      <point x="396" y="205" type="line"/>
      <point x="499" y="102" type="line"/>
    </contour>
    <contour>
      <point x="209" y="537" type="line"/>
      <point x="106" y="640" type="line"/>
      <point x="34" y="566" type="line"/>
      <point x="137" y="465" type="line"/>
    </contour>
    <contour>
      <point x="571" y="564" type="line"/>
      <point x="499" y="638" type="line"/>
      <point x="396" y="535" type="line"/>
      <point x="468" y="463" type="line"/>
    </contour>
  </outline>
</glyph>
<glyph name="yen" format="1">
  <advance width="600"/>
  <unicode hex="00A5"/>
  <outline>
    <contour>
      <point x="300" y="436" type="line"/>
      <point x="377" y="297" type="line"/>
      <point x="545" y="700" type="line"/>
      <point x="388" y="700" type="line"/>
    </contour>
    <contour>
      <point x="55" y="700" type="line"/>
      <point x="226" y="292" type="line"/>
      <point x="300" y="436" type="line"/>
      <point x="212" y="700" type="line"/>
    </contour>
    <contour>
      <point x="377" y="0" type="line"/>
      <point x="377" y="436" type="line"/>
      <point x="224" y="436" type="line"/>
      <point x="224" y="0" type="line"/>
    </contour>
    <contour>
      <point x="96" y="257" type="line"/>
      <point x="505" y="257" type="line"/>
      <point x="505" y="369" type="line"/>
      <point x="96" y="369" type="line"/>
    </contour>
    <contour>
      <point x="96" y="105" type="line"/>
      <point x="505" y="105" type="line"/>
      <point x="505" y="217" type="line"/>
      <point x="96" y="217" type="line"/>
    </contour>
  </outline>
</glyph>
<glyph name="section" format="1">
  <advance width="600"/>
  <unicode hex="00A7"/>
  <outline>
    <contour>
      <point x="279" y="463" type="line"/>
      <point x="196" y="451"/>
      <point x="66" y="396"/>
      <point x="66" y="301" type="curve" smooth="yes"/>
      <point x="66" y="180"/>
      <point x="217" y="146"/>
      <point x="281" y="128" type="curve" smooth="yes"/>
      <point x="340" y="111"/>
      <point x="396" y="90"/>
      <point x="396" y="58" type="curve" smooth="yes"/>
      <point x="396" y="22"/>
      <point x="364" y="7"/>
      <point x="291" y="7" type="curve" smooth="yes"/>
      <point x="214" y="7"/>
      <point x="176" y="43"/>
      <point x="163" y="81" type="curve"/>
      <point x="43" y="22" type="line"/>
      <point x="84" y="-60"/>
      <point x="172" y="-109"/>
      <point x="291" y="-109" type="curve" smooth="yes"/>
      <point x="402" y="-109"/>
      <point x="545" y="-74"/>
      <point x="545" y="54" type="curve" smooth="yes"/>
      <point x="545" y="186"/>
      <point x="364" y="224"/>
      <point x="307" y="240" type="curve" smooth="yes"/>
      <point x="260" y="253"/>
      <point x="217" y="275"/>
      <point x="217" y="311" type="curve" smooth="yes"/>
      <point x="217" y="367"/>
      <point x="288" y="396"/>
      <point x="340" y="396" type="curve" smooth="yes"/>
      <point x="349" y="396"/>
      <point x="357" y="395"/>
      <point x="366" y="394" type="curve"/>
    </contour>
    <contour>
      <point x="395" y="134" type="line"/>
      <point x="473" y="153"/>
      <point x="545" y="210"/>
      <point x="545" y="298" type="curve" smooth="yes"/>
      <point x="545" y="440"/>
      <point x="354" y="472"/>
      <point x="297" y="488" type="curve" smooth="yes"/>
      <point x="250" y="501"/>
      <point x="222" y="511"/>
      <point x="222" y="547" type="curve" smooth="yes"/>
      <point x="222" y="580"/>
      <point x="264" y="590"/>
      <point x="310" y="590" type="curve" smooth="yes"/>
      <point x="359" y="590"/>
      <point x="395" y="576"/>
      <point x="417" y="524" type="curve"/>
      <point x="536" y="585" type="line"/>
      <point x="495" y="668"/>
      <point x="412" y="706"/>
      <point x="310" y="706" type="curve" smooth="yes"/>
      <point x="222" y="706"/>
      <point x="76" y="670"/>
      <point x="76" y="555" type="curve" smooth="yes"/>
      <point x="76" y="424"/>
      <point x="227" y="386"/>
      <point x="291" y="368" type="curve" smooth="yes"/>
      <point x="350" y="351"/>
      <point x="396" y="350"/>
      <point x="396" y="288" type="curve" smooth="yes"/>
      <point x="396" y="237"/>
      <point x="349" y="189"/>
      <point x="288" y="182" type="curve"/>
    </contour>
  </outline>
</glyph>
<glyph name="dieresis" format="1">
  <advance width="600"/>
  <unicode hex="00A8"/>
  <outline>
    <contour>
      <point x="236" y="621"/>
      <point x="273" y="658"/>
      <point x="273" y="705" type="curve" smooth="yes"/>
      <point x="273" y="753"/>
      <point x="236" y="790"/>
      <point x="189" y="790" type="curve" smooth="yes"/>
      <point x="142" y="790"/>
      <point x="105" y="753"/>
      <point x="105" y="705" type="curve" smooth="yes"/>
      <point x="105" y="658"/>
      <point x="142" y="621"/>
      <point x="189" y="621" type="curve" smooth="yes"/>
    </contour>
    <contour>
      <point x="459" y="621"/>
      <point x="496" y="658"/>
      <point x="496" y="705" type="curve" smooth="yes"/>
      <point x="496" y="753"/>
      <point x="459" y="790"/>
      <point x="412" y="790" type="curve" smooth="yes"/>
      <point x="365" y="790"/>
      <point x="328" y="753"/>
      <point x="328" y="705" type="curve" smooth="yes"/>
      <point x="328" y="658"/>
      <point x="365" y="621"/>
      <point x="412" y="621" type="curve" smooth="yes"/>
    </contour>
  </outline>
</glyph>
<glyph name="copyright" format="1">
  <advance width="600"/>
  <unicode hex="00A9"/>
  <outline>
    <contour>
      <point x="433" y="40"/>
      <point x="571" y="111"/>
      <point x="571" y="349" type="curve" smooth="yes"/>
      <point x="571" y="586"/>
      <point x="433" y="657"/>
      <point x="297" y="657" type="curve" smooth="yes"/>
      <point x="160" y="657"/>
      <point x="22" y="586"/>
      <point x="22" y="349" type="curve" smooth="yes"/>
      <point x="22" y="111"/>
      <point x="160" y="40"/>
      <point x="297" y="40" type="curve" smooth="yes"/>
    </contour>
    <contour>
      <point x="200" y="131"/>
      <point x="115" y="168"/>
      <point x="115" y="349" type="curve" smooth="yes"/>
      <point x="115" y="529"/>
      <point x="200" y="566"/>
      <point x="297" y="566" type="curve" smooth="yes"/>
      <point x="393" y="566"/>
      <point x="477" y="529"/>
      <point x="477" y="349" type="curve" smooth="yes"/>
      <point x="477" y="168"/>
      <point x="393" y="131"/>
      <point x="297" y="131" type="curve" smooth="yes"/>
    </contour>
    <contour>
      <point x="363" y="317" type="line"/>
      <point x="356" y="296"/>
      <point x="344" y="273"/>
      <point x="307" y="273" type="curve" smooth="yes"/>
      <point x="268" y="273"/>
      <point x="252" y="303"/>
      <point x="252" y="348" type="curve" smooth="yes"/>
      <point x="252" y="394"/>
      <point x="268" y="423"/>
      <point x="307" y="423" type="curve" smooth="yes"/>
      <point x="343" y="423"/>
      <point x="354" y="401"/>
      <point x="362" y="374" type="curve"/>
      <point x="436" y="411" type="line"/>
      <point x="418" y="454"/>
      <point x="387" y="502"/>
      <point x="309" y="502" type="curve" smooth="yes"/>
      <point x="228" y="502"/>
      <point x="164" y="462"/>
      <point x="164" y="348" type="curve" smooth="yes"/>
      <point x="164" y="235"/>
      <point x="228" y="194"/>
      <point x="309" y="194" type="curve" smooth="yes"/>
      <point x="387" y="194"/>
      <point x="419" y="242"/>
      <point x="437" y="281" type="curve"/>
    </contour>
  </outline>
</glyph>
<glyph name="registered" format="1">
  <advance width="600"/>
  <unicode hex="00AE"/>
  <outline>
    <contour>
      <point x="443" y="160"/>
      <point x="571" y="241"/>
      <point x="571" y="439" type="curve" smooth="yes"/>
      <point x="571" y="636"/>
      <point x="443" y="717"/>
      <point x="297" y="717" type="curve" smooth="yes"/>
      <point x="150" y="717"/>
      <point x="22" y="636"/>
      <point x="22" y="439" type="curve" smooth="yes"/>
      <point x="22" y="241"/>
      <point x="150" y="160"/>
      <point x="297" y="160" type="curve" smooth="yes"/>
    </contour>
    <contour>
      <point x="197" y="251"/>
      <point x="115" y="288"/>
      <point x="115" y="439" type="curve" smooth="yes"/>
      <point x="115" y="589"/>
      <point x="200" y="626"/>
      <point x="297" y="626" type="curve" smooth="yes"/>
      <point x="393" y="626"/>
      <point x="477" y="589"/>
      <point x="477" y="439" type="curve" smooth="yes"/>
      <point x="477" y="288"/>
      <point x="393" y="251"/>
      <point x="297" y="251" type="curve" smooth="yes"/>
    </contour>
    <contour>
      <point x="306" y="520" type="line" smooth="yes"/>
      <point x="332" y="520"/>
      <point x="337" y="510"/>
      <point x="337" y="495" type="curve" smooth="yes"/>
      <point x="337" y="480"/>
      <point x="332" y="466"/>
      <point x="306" y="466" type="curve" smooth="yes"/>
      <point x="273" y="466" type="line"/>
      <point x="273" y="520" type="line"/>
    </contour>
    <contour>
      <point x="352" y="400"/>
      <point x="410" y="414"/>
      <point x="410" y="499" type="curve" smooth="yes"/>
      <point x="410" y="573"/>
      <point x="352" y="585"/>
      <point x="305" y="585" type="curve" smooth="yes"/>
      <point x="201" y="585" type="line"/>
      <point x="201" y="294" type="line"/>
      <point x="273" y="294" type="line"/>
      <point x="273" y="400" type="line"/>
      <point x="305" y="400" type="line" smooth="yes"/>
    </contour>
    <contour>
      <point x="415" y="294" type="line"/>
      <point x="352" y="413" type="line"/>
      <point x="276" y="413" type="line"/>
      <point x="336" y="294" type="line"/>
    </contour>
  </outline>
</glyph>
<glyph name="macron" format="1">
  <advance width="600"/>
  <unicode hex="00AF"/>
  <outline>
    <contour>
      <point x="120" y="650" type="line"/>
      <point x="479" y="650" type="line"/>
      <point x="479" y="750" type="line"/>
      <point x="120" y="750" type="line"/>
    </contour>
  </outline>
</glyph>
<glyph name="degree" format="1">
  <advance width="600"/>
  <unicode hex="00B0"/>
  <outline>
    <contour>
      <point x="344" y="482"/>
      <point x="417" y="555"/>
      <point x="417" y="644" type="curve" smooth="yes"/>
      <point x="417" y="732"/>
      <point x="344" y="805"/>
      <point x="256" y="805" type="curve" smooth="yes"/>
      <point x="167" y="805"/>
      <point x="94" y="732"/>
      <point x="94" y="644" type="curve" smooth="yes"/>
      <point x="94" y="555"/>
      <point x="167" y="482"/>
      <point x="256" y="482" type="curve" smooth="yes"/>
    </contour>
    <contour>
      <point x="227" y="592"/>
      <point x="204" y="615"/>
      <point x="204" y="644" type="curve" smooth="yes"/>
      <point x="204" y="672"/>
      <point x="227" y="695"/>
      <point x="256" y="695" type="curve" smooth="yes"/>
      <point x="284" y="695"/>
      <point x="307" y="672"/>
      <point x="307" y="644" type="curve" smooth="yes"/>
      <point x="307" y="615"/>
      <point x="284" y="592"/>
      <point x="256" y="592" type="curve" smooth="yes"/>
    </contour>
  </outline>
</glyph>
<glyph name="plusminus" format="1">
  <advance width="600"/>
  <unicode hex="00B1"/>
  <outline>
    <contour>
      <point x="99" y="322" type="line"/>
      <point x="506" y="322" type="line"/>
      <point x="506" y="424" type="line"/>
      <point x="99" y="424" type="line"/>
    </contour>
    <contour>
      <point x="364" y="219" type="line"/>
      <point x="364" y="526" type="line"/>
      <point x="242" y="526" type="line"/>
      <point x="242" y="219" type="line"/>
    </contour>
    <contour>
      <point x="99" y="74" type="line"/>
      <point x="506" y="74" type="line"/>
      <point x="506" y="176" type="line"/>
      <point x="99" y="176" type="line"/>
    </contour>
  </outline>
</glyph>
<glyph name="acute" format="1">
  <advance width="600"/>
  <unicode hex="00B4"/>
  <outline>
    <contour>
      <point x="304" y="609" type="line"/>
      <point x="458" y="760" type="line"/>
      <point x="283" y="760" type="line"/>
      <point x="170" y="609" type="line"/>
    </contour>
  </outline>
</glyph>
<glyph name="paragraph" format="1">
  <advance width="600"/>
  <unicode hex="00B6"/>
  <outline>
    <contour>
      <point x="237" y="280" type="line"/>
      <point x="237" y="-120" type="line"/>
      <point x="360" y="-120" type="line"/>
      <point x="360" y="700" type="line"/>
      <point x="234" y="700" type="line" smooth="yes"/>
      <point x="140" y="700"/>
      <point x="26" y="645"/>
      <point x="26" y="494" type="curve" smooth="yes"/>
      <point x="26" y="333"/>
      <point x="140" y="280"/>
      <point x="214" y="280" type="curve" smooth="yes"/>
    </contour>
    <contour>
      <point x="539" y="-120" type="line"/>
      <point x="539" y="700" type="line"/>
      <point x="416" y="700" type="line"/>
      <point x="416" y="-120" type="line"/>
    </contour>
    <contour>
      <point x="267" y="588" type="line"/>
      <point x="497" y="588" type="line"/>
      <point x="497" y="700" type="line"/>
      <point x="267" y="700" type="line"/>
    </contour>
  </outline>
</glyph>
<glyph name="cedilla" format="1">
  <advance width="600"/>
  <unicode hex="00B8"/>
  <outline>
    <contour>
      <point x="184" y="-77" type="line"/>
      <point x="285" y="-96" type="line"/>
      <point x="336" y="0" type="line"/>
      <point x="210" y="0" type="line"/>
    </contour>
    <contour>
      <point x="295" y="-80"/>
      <point x="323" y="-85"/>
      <point x="322" y="-103" type="curve" smooth="yes"/>
      <point x="321" y="-130"/>
      <point x="242" y="-129"/>
      <point x="171" y="-117" type="curve"/>
      <point x="143" y="-192" type="line"/>
      <point x="269" y="-219"/>
      <point x="438" y="-196"/>
      <point x="439" y="-95" type="curve" smooth="yes"/>
      <point x="440" y="-17"/>
      <point x="323" y="-18"/>
      <point x="301" y="-44" type="curve"/>
      <point x="285" y="-96" type="line"/>
    </contour>
  </outline>
</glyph>
<glyph name="AE" format="1">
  <advance width="600"/>
  <unicode hex="00C6"/>
  <outline>
    <contour>
      <point x="438" y="0" type="line"/>
      <point x="438" y="700" type="line"/>
      <point x="285" y="700" type="line"/>
      <point x="285" y="0" type="line"/>
    </contour>
    <contour>
      <point x="347" y="0" type="line"/>
      <point x="597" y="0" type="line"/>
      <point x="597" y="122" type="line"/>
      <point x="347" y="122" type="line"/>
    </contour>
    <contour>
      <point x="347" y="283" type="line"/>
      <point x="565" y="283" type="line"/>
      <point x="565" y="405" type="line"/>
      <point x="347" y="405" type="line"/>
    </contour>
    <contour>
      <point x="347" y="578" type="line"/>
      <point x="597" y="578" type="line"/>
      <point x="597" y="700" type="line"/>
      <point x="347" y="700" type="line"/>
    </contour>
    <contour>
      <point x="-21" y="0" type="line"/>
      <point x="144" y="0" type="line"/>
      <point x="345" y="700" type="line"/>
      <point x="193" y="700" type="line"/>
    </contour>
    <contour>
      <point x="208" y="578" type="line"/>
      <point x="325" y="578" type="line"/>
      <point x="343" y="700" type="line"/>
      <point x="225" y="700" type="line"/>
    </contour>
    <contour>
      <point x="123" y="164" type="line"/>
      <point x="335" y="164" type="line"/>
      <point x="352" y="286" type="line"/>
      <point x="140" y="286" type="line"/>
    </contour>
  </outline>
</glyph>
<glyph name="Thorn" format="1">
  <advance width="600"/>
  <unicode hex="00DE"/>
  <outline>
    <contour>
      <point x="234" y="700" type="line"/>
      <point x="81" y="700" type="line"/>
      <point x="81" y="0" type="line"/>
      <point x="234" y="0" type="line"/>
    </contour>
    <contour>
      <point x="170" y="128" type="line"/>
      <point x="292" y="128" type="line" smooth="yes"/>
      <point x="376" y="128"/>
      <point x="530" y="146"/>
      <point x="530" y="367" type="curve" smooth="yes"/>
      <point x="530" y="578"/>
      <point x="376" y="588"/>
      <point x="292" y="588" type="curve" smooth="yes"/>
      <point x="168" y="588" type="line"/>
      <point x="168" y="466" type="line"/>
      <point x="275" y="466" type="line"/>
      <point x="340" y="466"/>
      <point x="376" y="461"/>
      <point x="376" y="367" type="curve" smooth="yes"/>
      <point x="376" y="263"/>
      <point x="340" y="250"/>
      <point x="275" y="250" type="curve" smooth="yes"/>
      <point x="170" y="250" type="line"/>
    </contour>
  </outline>
</glyph>
<glyph name="germandbls" format="1">
  <advance width="600"/>
  <unicode hex="00DF"/>
  <outline>
    <contour>
      <point x="183" y="0" type="line"/>
      <point x="183" y="502" type="line"/>
      <point x="30" y="513" type="line"/>
      <point x="30" y="0" type="line"/>
    </contour>
    <contour>
      <point x="223" y="2" type="line"/>
      <point x="256" y="-7"/>
      <point x="291" y="-11"/>
      <point x="323" y="-11" type="curve" smooth="yes"/>
      <point x="444" y="-11"/>
      <point x="589" y="48"/>
      <point x="589" y="197" type="curve"/>
      <point x="431" y="197" type="line"/>
      <point x="431" y="142"/>
      <point x="403" y="112"/>
      <point x="323" y="112" type="curve" smooth="yes"/>
      <point x="296" y="112"/>
      <point x="270" y="117"/>
      <point x="247" y="126" type="curve"/>
    </contour>
    <contour>
      <point x="539" y="550" type="line"/>
      <point x="539" y="668"/>
      <point x="405" y="726"/>
      <point x="297" y="726" type="curve" smooth="yes"/>
      <point x="189" y="726"/>
      <point x="30" y="682"/>
      <point x="30" y="513" type="curve"/>
      <point x="183" y="502" type="line"/>
      <point x="183" y="568"/>
      <point x="233" y="603"/>
      <point x="297" y="603" type="curve" smooth="yes"/>
      <point x="354" y="603"/>
      <point x="380" y="586"/>
      <point x="380" y="540" type="curve"/>
    </contour>
    <contour>
      <point x="380" y="540" type="line"/>
      <point x="380" y="473"/>
      <point x="279" y="494"/>
      <point x="279" y="391" type="curve" smooth="yes"/>
      <point x="279" y="288"/>
      <point x="431" y="302"/>
      <point x="431" y="197" type="curve"/>
      <point x="589" y="197" type="line"/>
      <point x="589" y="350"/>
      <point x="435" y="354"/>
      <point x="435" y="391" type="curve" smooth="yes"/>
      <point x="435" y="428"/>
      <point x="539" y="436"/>
      <point x="539" y="550" type="curve"/>
    </contour>
  </outline>
</glyph>
<glyph name="ae" format="1">
  <advance width="600"/>
  <unicode hex="00E6"/>
  <outline>
    <contour>
      <point x="307" y="-11"/>
      <point x="311" y="76"/>
      <point x="311" y="76" type="curve"/>
      <point x="262" y="162" type="line"/>
      <point x="255" y="128"/>
      <point x="226" y="111"/>
      <point x="195" y="111" type="curve"/>
      <point x="180" y="111"/>
      <point x="142" y="113"/>
      <point x="142" y="153" type="curve"/>
      <point x="12" y="153" type="line"/>
      <point x="12" y="41"/>
      <point x="79" y="-11"/>
      <point x="178" y="-11" type="curve"/>
    </contour>
    <contour>
      <point x="142" y="153" type="line"/>
      <point x="142" y="204"/>
      <point x="198" y="204"/>
      <point x="232" y="204" type="curve"/>
      <point x="218" y="328" type="line"/>
      <point x="91" y="328"/>
      <point x="12" y="264"/>
      <point x="12" y="153" type="curve"/>
    </contour>
    <contour>
      <point x="320" y="204" type="line"/>
      <point x="320" y="328" type="line"/>
      <point x="218" y="328" type="line"/>
      <point x="232" y="204" type="line"/>
    </contour>
    <contour>
      <point x="339" y="335" type="line"/>
      <point x="339" y="426"/>
      <point x="281" y="512"/>
      <point x="195" y="512" type="curve"/>
      <point x="110" y="512"/>
      <point x="52" y="486"/>
      <point x="-5" y="442" type="curve"/>
      <point x="76" y="348" type="line"/>
      <point x="100" y="370"/>
      <point x="143" y="389"/>
      <point x="190" y="389" type="curve"/>
      <point x="233" y="389"/>
      <point x="246" y="370"/>
      <point x="246" y="321" type="curve"/>
    </contour>
    <contour>
      <point x="349" y="209" type="line"/>
      <point x="349" y="341" type="line"/>
      <point x="246" y="321" type="line"/>
      <point x="246" y="209" type="line"/>
    </contour>
    <contour>
      <point x="487" y="161" type="line"/>
      <point x="480" y="141"/>
      <point x="470" y="112"/>
      <point x="434" y="112" type="curve" smooth="yes"/>
      <point x="400" y="112"/>
      <point x="381" y="132"/>
      <point x="381" y="251" type="curve" smooth="yes"/>
      <point x="381" y="364"/>
      <point x="386" y="389"/>
      <point x="429" y="389" type="curve" smooth="yes"/>
      <point x="459" y="389"/>
      <point x="466" y="365"/>
      <point x="466" y="326" type="curve"/>
      <point x="590" y="204" type="line"/>
      <point x="600" y="374"/>
      <point x="560" y="512"/>
      <point x="439" y="512" type="curve" smooth="yes"/>
      <point x="322" y="512"/>
      <point x="244" y="444"/>
      <point x="244" y="247" type="curve" smooth="yes"/>
      <point x="244" y="54"/>
      <point x="318" y="-11"/>
      <point x="432" y="-11" type="curve" smooth="yes"/>
      <point x="496" y="-11"/>
      <point x="564" y="31"/>
      <point x="594" y="112" type="curve"/>
    </contour>
    <contour>
      <point x="347" y="204" type="line"/>
      <point x="590" y="204" type="line"/>
      <point x="530" y="326" type="line"/>
      <point x="347" y="326" type="line"/>
    </contour>
  </outline>
</glyph>
<glyph name="eth" format="1">
  <advance width="600"/>
  <unicode hex="00F0"/>
  <outline>
    <contour>
      <point x="229" y="112"/>
      <point x="198" y="174"/>
      <point x="198" y="251" type="curve" smooth="yes"/>
      <point x="198" y="330"/>
      <point x="224" y="389"/>
      <point x="287" y="389" type="curve" smooth="yes"/>
      <point x="351" y="389"/>
      <point x="392" y="358"/>
      <point x="411" y="316" type="curve"/>
      <point x="475" y="373" type="line"/>
      <point x="427" y="463"/>
      <point x="371" y="512"/>
      <point x="280" y="512" type="curve" smooth="yes"/>
      <point x="143" y="512"/>
      <point x="40" y="434"/>
      <point x="40" y="251" type="curve" smooth="yes"/>
      <point x="40" y="70"/>
      <point x="155" y="-11"/>
      <point x="292" y="-11" type="curve"/>
      <point x="292" y="112" type="line"/>
    </contour>
    <contour>
      <point x="183" y="636" type="line"/>
      <point x="361" y="602"/>
      <point x="399" y="516"/>
      <point x="399" y="328" type="curve" smooth="yes"/>
      <point x="399" y="149"/>
      <point x="385" y="112"/>
      <point x="292" y="112" type="curve"/>
      <point x="292" y="-11" type="line"/>
      <point x="439" y="-11"/>
      <point x="557" y="45"/>
      <point x="557" y="328" type="curve" smooth="yes"/>
      <point x="557" y="606"/>
      <point x="403" y="690"/>
      <point x="234" y="727" type="curve"/>
    </contour>
    <contour>
      <point x="201" y="586" type="line"/>
      <point x="255" y="535" type="line"/>
      <point x="474" y="674" type="line"/>
      <point x="432" y="736" type="line"/>
    </contour>
  </outline>
</glyph>
<glyph name="divide" format="1">
  <advance width="600"/>
  <unicode hex="00F7"/>
  <outline>
    <contour>
      <point x="99" y="243" type="line"/>
      <point x="506" y="243" type="line"/>
      <point x="506" y="365" type="line"/>
      <point x="99" y="365" type="line"/>
    </contour>
    <contour>
      <point x="341" y="50"/>
      <point x="375" y="85"/>
      <point x="375" y="128" type="curve" smooth="yes"/>
      <point x="375" y="170"/>
      <point x="341" y="205"/>
      <point x="298" y="205" type="curve" smooth="yes"/>
      <point x="255" y="205"/>
      <point x="221" y="170"/>
      <point x="221" y="128" type="curve" smooth="yes"/>
      <point x="221" y="85"/>
      <point x="255" y="50"/>
      <point x="298" y="50" type="curve" smooth="yes"/>
    </contour>
    <contour>
      <point x="341" y="406"/>
      <point x="375" y="441"/>
      <point x="375" y="484" type="curve" smooth="yes"/>
      <point x="375" y="526"/>
      <point x="341" y="561"/>
      <point x="298" y="561" type="curve" smooth="yes"/>
      <point x="255" y="561"/>
      <point x="221" y="526"/>
      <point x="221" y="484" type="curve" smooth="yes"/>
      <point x="221" y="441"/>
      <point x="255" y="406"/>
      <point x="298" y="406" type="curve" smooth="yes"/>
    </contour>
  </outline>
</glyph>
<glyph name="thorn" format="1">
  <advance width="600"/>
  <unicode hex="00FE"/>
  <outline>
    <contour>
      <point x="210" y="-200" type="line"/>
      <point x="210" y="800" type="line"/>
      <point x="57" y="800" type="line"/>
      <point x="57" y="-200" type="line"/>
    </contour>
    <contour>
      <point x="188" y="282" type="line"/>
      <point x="201" y="315"/>
      <point x="228" y="388"/>
      <point x="310" y="388" type="curve" smooth="yes"/>
      <point x="382" y="388"/>
      <point x="401" y="340"/>
      <point x="401" y="251" type="curve"/>
      <point x="554" y="251" type="line"/>
      <point x="554" y="434"/>
      <point x="475" y="511"/>
      <point x="339" y="511" type="curve" smooth="yes"/>
      <point x="212" y="511"/>
      <point x="135" y="414"/>
      <point x="135" y="302" type="curve"/>
    </contour>
    <contour>
      <point x="135" y="98"/>
      <point x="202" y="-11"/>
      <point x="329" y="-11" type="curve" smooth="yes"/>
      <point x="465" y="-11"/>
      <point x="554" y="68"/>
      <point x="554" y="251" type="curve"/>
      <point x="401" y="251" type="line"/>
      <point x="401" y="162"/>
      <point x="372" y="112"/>
      <point x="300" y="112" type="curve" smooth="yes"/>
      <point x="218" y="112"/>
      <point x="191" y="187"/>
      <point x="188" y="230" type="curve"/>
      <point x="135" y="210" type="line"/>
    </contour>
  </outline>
</glyph>
<glyph name="aogonek" format="1">
  <advance width="600"/>
  <unicode hex="0105"/>
  <outline>
    <contour>
      <point x="539" y="0" type="line"/>
      <point x="592" y="51" type="line"/>
      <point x="579" y="64" type="line"/>
      <point x="411" y="0" type="line"/>
    </contour>
    <component base="a"/>
    <component base="ogonekcomb" xOffset="154"/>
  </outline>
</glyph>
<glyph name="idotless" format="1">
  <advance width="600"/>
  <unicode hex="0131"/>
  <outline>
    <contour>
      <point x="109" y="378" type="line"/>
      <point x="242" y="378" type="line"/>
      <point x="242" y="500" type="line"/>
      <point x="109" y="500" type="line"/>
    </contour>
    <contour>
      <point x="390" y="56" type="line"/>
      <point x="390" y="500" type="line"/>
      <point x="237" y="500" type="line"/>
      <point x="237" y="31" type="line"/>
    </contour>
    <contour>
      <point x="237" y="0" type="line"/>
      <point x="509" y="0" type="line"/>
      <point x="509" y="122" type="line"/>
      <point x="237" y="122" type="line"/>
    </contour>
  </outline>
</glyph>
<glyph name="Lslash" format="1">
  <advance width="600"/>
  <unicode hex="0141"/>
  <outline>
    <contour>
      <point x="37" y="133" type="line"/>
      <point x="349" y="445" type="line"/>
      <point x="349" y="576" type="line"/>
      <point x="37" y="263" type="line"/>
    </contour>
    <component base="L"/>
  </outline>
</glyph>
<glyph name="lslash" format="1">
  <advance width="600"/>
  <unicode hex="0142"/>
  <outline>
    <contour>
      <point x="137" y="133" type="line"/>
      <point x="449" y="445" type="line"/>
      <point x="449" y="576" type="line"/>
      <point x="137" y="263" type="line"/>
    </contour>
    <component base="l"/>
  </outline>
</glyph>
<glyph name="Eng" format="1">
  <advance width="600"/>
  <unicode hex="014A"/>
  <outline>
    <contour>
      <point x="551" y="20" type="line"/>
      <point x="222" y="700" type="line"/>
      <point x="61" y="700" type="line"/>
      <point x="420" y="0" type="line"/>
    </contour>
    <contour>
      <point x="456" y="-192"/>
      <point x="551" y="-140"/>
      <point x="551" y="-12" type="curve"/>
      <point x="551" y="28" type="line"/>
      <point x="420" y="0" type="line"/>
      <point x="420" y="-46"/>
      <point x="391" y="-69"/>
      <point x="333" y="-69" type="curve"/>
      <point x="292" y="-69"/>
      <point x="244" y="-62"/>
      <point x="228" y="-56" type="curve"/>
      <point x="196" y="-179" type="line"/>
      <point x="220" y="-185"/>
      <point x="288" y="-192"/>
      <point x="340" y="-192" type="curve"/>
    </contour>
    <contour>
      <point x="204" y="0" type="line"/>
      <point x="204" y="700" type="line"/>
      <point x="51" y="700" type="line"/>
      <point x="51" y="0" type="line"/>
    </contour>
    <contour>
      <point x="551" y="700" type="line"/>
      <point x="398" y="700" type="line"/>
      <point x="398" y="50" type="line"/>
      <point x="551" y="0" type="line"/>
    </contour>
  </outline>
</glyph>
<glyph name="eng" format="1">
  <advance width="600"/>
  <unicode hex="014B"/>
  <outline>
    <contour>
      <point x="225" y="-183" type="line"/>
      <point x="249" y="-189"/>
      <point x="277" y="-192"/>
      <point x="309" y="-192" type="curve"/>
      <point x="425" y="-192"/>
      <point x="534" y="-130"/>
      <point x="534" y="-12" type="curve"/>
      <point x="534" y="22" type="line"/>
      <point x="381" y="0" type="line"/>
      <point x="381" y="-18"/>
      <point x="370" y="-61"/>
      <point x="302" y="-61" type="curve"/>
      <point x="281" y="-61"/>
      <point x="265" y="-60"/>
      <point x="257" y="-56" type="curve"/>
    </contour>
    <component base="n"/>
  </outline>
</glyph>
<glyph name="OE" format="1">
  <advance width="600"/>
  <unicode hex="0152"/>
  <outline>
    <contour>
      <point x="263" y="-11"/>
      <point x="296" y="-3"/>
      <point x="325" y="19" type="curve"/>
      <point x="269" y="138" type="line"/>
      <point x="254" y="120"/>
      <point x="245" y="112"/>
      <point x="227" y="112" type="curve" smooth="yes"/>
      <point x="184" y="112"/>
      <point x="160" y="144"/>
      <point x="160" y="348" type="curve" smooth="yes"/>
      <point x="160" y="551"/>
      <point x="184" y="583"/>
      <point x="227" y="583" type="curve" smooth="yes"/>
      <point x="246" y="583"/>
      <point x="254" y="576"/>
      <point x="269" y="556" type="curve"/>
      <point x="334" y="669" type="line"/>
      <point x="303" y="696"/>
      <point x="266" y="706"/>
      <point x="227" y="706" type="curve" smooth="yes"/>
      <point x="120" y="706"/>
      <point x="2" y="655"/>
      <point x="2" y="348" type="curve" smooth="yes"/>
      <point x="2" y="40"/>
      <point x="120" y="-11"/>
      <point x="227" y="-11" type="curve" smooth="yes"/>
    </contour>
    <contour>
      <point x="582" y="0" type="line"/>
      <point x="582" y="122" type="line"/>
      <point x="283" y="122" type="line"/>
      <point x="283" y="0" type="line"/>
    </contour>
    <contour>
      <point x="423" y="0" type="line"/>
      <point x="423" y="700" type="line"/>
      <point x="259" y="700" type="line"/>
      <point x="259" y="0" type="line"/>
    </contour>
    <contour>
      <point x="558" y="283" type="line"/>
      <point x="558" y="405" type="line"/>
      <point x="363" y="405" type="line"/>
      <point x="363" y="283" type="line"/>
    </contour>
    <contour>
      <point x="582" y="578" type="line"/>
      <point x="582" y="700" type="line"/>
      <point x="273" y="700" type="line"/>
      <point x="273" y="578" type="line"/>
    </contour>
  </outline>
</glyph>
<glyph name="oe" format="1">
  <advance width="600"/>
  <unicode hex="0153"/>
  <outline>
    <contour>
      <point x="298" y="-11"/>
      <point x="346" y="108"/>
      <point x="346" y="251" type="curve" smooth="yes"/>
      <point x="346" y="393"/>
      <point x="298" y="512"/>
      <point x="182" y="512" type="curve" smooth="yes"/>
      <point x="85" y="512"/>
      <point x="7" y="443"/>
      <point x="7" y="251" type="curve" smooth="yes"/>
      <point x="7" y="58"/>
      <point x="85" y="-11"/>
      <point x="182" y="-11" type="curve" smooth="yes"/>
    </contour>
    <contour>
      <point x="159" y="112"/>
      <point x="135" y="117"/>
      <point x="135" y="251" type="curve" smooth="yes"/>
      <point x="135" y="384"/>
      <point x="159" y="389"/>
      <point x="182" y="389" type="curve" smooth="yes"/>
      <point x="204" y="389"/>
      <point x="228" y="384"/>
      <point x="228" y="251" type="curve" smooth="yes"/>
      <point x="228" y="117"/>
      <point x="204" y="112"/>
      <point x="182" y="112" type="curve" smooth="yes"/>
    </contour>
    <contour>
      <point x="500" y="-11"/>
      <point x="568" y="31"/>
      <point x="598" y="112" type="curve"/>
      <point x="491" y="161" type="line"/>
      <point x="484" y="141"/>
      <point x="474" y="112"/>
      <point x="438" y="112" type="curve" smooth="yes"/>
      <point x="404" y="112"/>
      <point x="385" y="132"/>
      <point x="385" y="251" type="curve" smooth="yes"/>
      <point x="385" y="364"/>
      <point x="398" y="389"/>
      <point x="431" y="389" type="curve" smooth="yes"/>
      <point x="461" y="389"/>
      <point x="470" y="365"/>
      <point x="470" y="326" type="curve"/>
      <point x="594" y="204" type="line"/>
      <point x="604" y="374"/>
      <point x="554" y="512"/>
      <point x="433" y="512" type="curve" smooth="yes"/>
      <point x="326" y="512"/>
      <point x="248" y="444"/>
      <point x="248" y="247" type="curve" smooth="yes"/>
      <point x="248" y="54"/>
      <point x="322" y="-11"/>
      <point x="436" y="-11" type="curve" smooth="yes"/>
    </contour>
    <contour>
      <point x="594" y="204" type="line"/>
      <point x="534" y="326" type="line"/>
      <point x="351" y="326" type="line"/>
      <point x="351" y="204" type="line"/>
    </contour>
  </outline>
</glyph>
<glyph name="uogonek" format="1">
  <advance width="600"/>
  <unicode hex="0173"/>
  <outline>
    <contour>
      <point x="394" y="0" type="line"/>
      <point x="442" y="-12" type="line"/>
      <point x="442" y="23" type="line"/>
      <point x="409" y="6" type="line"/>
    </contour>
    <component base="u"/>
    <component base="ogonekcomb" xOffset="137"/>
  </outline>
</glyph>
<glyph name="circumflex" format="1">
  <advance width="600"/>
  <unicode hex="02C6"/>
  <outline>
    <contour>
      <point x="359" y="760" type="line"/>
      <point x="240" y="760" type="line"/>
      <point x="112" y="619" type="line"/>
      <point x="249" y="619" type="line"/>
      <point x="300" y="693" type="line"/>
      <point x="350" y="619" type="line"/>
      <point x="487" y="619" type="line"/>
    </contour>
  </outline>
</glyph>
<glyph name="caron" format="1">
  <advance width="600"/>
  <unicode hex="02C7"/>
  <outline>
    <contour>
      <point x="350" y="760" type="line"/>
      <point x="300" y="686" type="line"/>
      <point x="249" y="760" type="line"/>
      <point x="112" y="760" type="line"/>
      <point x="240" y="619" type="line"/>
      <point x="359" y="619" type="line"/>
      <point x="487" y="760" type="line"/>
    </contour>
  </outline>
</glyph>
<glyph name="breve" format="1">
  <advance width="600"/>
  <unicode hex="02D8"/>
  <outline>
    <contour>
      <point x="341" y="760" type="line"/>
      <point x="341" y="749"/>
      <point x="341" y="695"/>
      <point x="300" y="695" type="curve" smooth="yes"/>
      <point x="260" y="695"/>
      <point x="259" y="749"/>
      <point x="259" y="760" type="curve"/>
      <point x="157" y="760" type="line"/>
      <point x="157" y="698"/>
      <point x="192" y="616"/>
      <point x="299" y="616" type="curve" smooth="yes"/>
      <point x="406" y="616"/>
      <point x="443" y="698"/>
      <point x="443" y="760" type="curve"/>
    </contour>
  </outline>
</glyph>
<glyph name="dotaccent" format="1">
  <advance width="600"/>
  <unicode hex="02D9"/>
  <outline>
    <contour>
      <point x="341" y="625"/>
      <point x="378" y="662"/>
      <point x="378" y="709" type="curve" smooth="yes"/>
      <point x="378" y="757"/>
      <point x="341" y="794"/>
      <point x="294" y="794" type="curve" smooth="yes"/>
      <point x="247" y="794"/>
      <point x="210" y="757"/>
      <point x="210" y="709" type="curve" smooth="yes"/>
      <point x="210" y="662"/>
      <point x="247" y="625"/>
      <point x="294" y="625" type="curve" smooth="yes"/>
    </contour>
  </outline>
</glyph>
<glyph name="ring" format="1">
  <advance width="600"/>
  <unicode hex="02DA"/>
  <outline>
    <contour>
      <point x="359" y="549"/>
      <point x="411" y="598"/>
      <point x="411" y="663" type="curve" smooth="yes"/>
      <point x="411" y="725"/>
      <point x="359" y="776"/>
      <point x="298" y="776" type="curve" smooth="yes"/>
      <point x="235" y="776"/>
      <point x="183" y="725"/>
      <point x="183" y="663" type="curve" smooth="yes"/>
      <point x="183" y="598"/>
      <point x="235" y="549"/>
      <point x="298" y="549" type="curve" smooth="yes"/>
    </contour>
    <contour>
      <point x="278" y="628"/>
      <point x="264" y="642"/>
      <point x="264" y="663" type="curve" smooth="yes"/>
      <point x="264" y="681"/>
      <point x="278" y="695"/>
      <point x="298" y="695" type="curve" smooth="yes"/>
      <point x="316" y="695"/>
      <point x="331" y="681"/>
      <point x="331" y="663" type="curve" smooth="yes"/>
      <point x="331" y="642"/>
      <point x="316" y="628"/>
      <point x="298" y="628" type="curve" smooth="yes"/>
    </contour>
  </outline>
</glyph>
<glyph name="ogonek" format="1">
  <advance width="600"/>
  <unicode hex="02DB"/>
  <outline>
    <contour>
      <point x="257" y="0" type="line" smooth="yes"/>
      <point x="257" y="0"/>
      <point x="161" y="-35"/>
      <point x="161" y="-110" type="curve" smooth="yes"/>
      <point x="161" y="-210"/>
      <point x="328" y="-218"/>
      <point x="438" y="-184" type="curve"/>
      <point x="395" y="-92" type="line"/>
      <point x="375" y="-97"/>
      <point x="321" y="-111"/>
      <point x="321" y="-69" type="curve" smooth="yes"/>
      <point x="321" y="-33"/>
      <point x="385" y="0"/>
      <point x="385" y="0" type="curve" smooth="yes"/>
    </contour>
  </outline>
</glyph>
<glyph name="tilde" format="1">
  <advance width="600"/>
  <unicode hex="02DC"/>
  <outline>
    <contour>
      <point x="74" y="705"/>
      <point x="123" y="782"/>
      <point x="212" y="782" type="curve" smooth="yes"/>
      <point x="305" y="782"/>
      <point x="313" y="714"/>
      <point x="365" y="714" type="curve" smooth="yes"/>
      <point x="417" y="714"/>
      <point x="444" y="770"/>
      <point x="444" y="770" type="curve"/>
      <point x="514" y="706" type="line"/>
      <point x="506" y="696"/>
      <point x="462" y="620"/>
      <point x="373" y="620" type="curve" smooth="yes"/>
      <point x="280" y="620"/>
      <point x="272" y="686"/>
      <point x="220" y="686" type="curve" smooth="yes"/>
      <point x="168" y="686"/>
      <point x="139" y="631"/>
      <point x="139" y="631" type="curve"/>
      <point x="69" y="694" type="line"/>
    </contour>
  </outline>
</glyph>
<glyph name="hungarumlaut" format="1">
  <advance width="600"/>
  <unicode hex="02DD"/>
  <outline>
    <contour>
      <point x="249" y="609" type="line"/>
      <point x="340" y="760" type="line"/>
      <point x="205" y="760" type="line"/>
      <point x="140" y="609" type="line"/>
    </contour>
    <contour>
      <point x="408" y="609" type="line"/>
      <point x="537" y="760" type="line"/>
      <point x="396" y="760" type="line"/>
      <point x="304" y="609" type="line"/>
    </contour>
  </outline>
</glyph>
<glyph name="strokeshortcomb" format="1">
  <advance width="600"/>
  <unicode hex="0335"/>
  <outline>
    <contour>
      <point x="128" y="304" type="line"/>
      <point x="466" y="304" type="line"/>
      <point x="466" y="404" type="line"/>
      <point x="128" y="404" type="line"/>
    </contour>
  </outline>
</glyph>
<glyph name="strokelongcomb" format="1">
  <advance width="600"/>
  <unicode hex="0336"/>
  <outline>
    <contour>
      <point x="58" y="304" type="line"/>
      <point x="540" y="304" type="line"/>
      <point x="540" y="404" type="line"/>
      <point x="58" y="404" type="line"/>
    </contour>
  </outline>
</glyph>
<glyph name="slashshortcomb" format="1">
  <advance width="600"/>
  <unicode hex="0337"/>
  <outline>
    <contour>
      <point x="428" y="554" type="line"/>
      <point x="24" y="-53" type="line"/>
      <point x="144" y="-53" type="line"/>
      <point x="548" y="554" type="line"/>
    </contour>
  </outline>
</glyph>
<glyph name="slashlongcomb" format="1">
  <advance width="600"/>
  <unicode hex="0338"/>
  <outline>
    <contour>
      <point x="482" y="747" type="line"/>
      <point x="-6" y="-53" type="line"/>
      <point x="114" y="-53" type="line"/>
      <point x="602" y="747" type="line"/>
    </contour>
  </outline>
</glyph>
<glyph name="endash" format="1">
  <advance width="600"/>
  <unicode hex="2013"/>
  <outline>
    <contour>
      <point x="95" y="243" type="line"/>
      <point x="495" y="243" type="line"/>
      <point x="495" y="365" type="line"/>
      <point x="95" y="365" type="line"/>
    </contour>
  </outline>
</glyph>
<glyph name="emdash" format="1">
  <advance width="600"/>
  <unicode hex="2014"/>
  <outline>
    <contour>
      <point x="16" y="243" type="line"/>
      <point x="582" y="243" type="line"/>
      <point x="582" y="365" type="line"/>
      <point x="16" y="365" type="line"/>
    </contour>
  </outline>
</glyph>
<glyph name="quoteleft" format="1">
  <advance width="600"/>
  <unicode hex="2018"/>
  <outline>
    <contour>
      <point x="248" y="682"/>
      <point x="210" y="644"/>
      <point x="210" y="595" type="curve" smooth="yes"/>
      <point x="210" y="547"/>
      <point x="248" y="509"/>
      <point x="297" y="509" type="curve" smooth="yes"/>
      <point x="346" y="509"/>
      <point x="384" y="547"/>
      <point x="384" y="595" type="curve" smooth="yes"/>
      <point x="384" y="644"/>
      <point x="346" y="682"/>
      <point x="297" y="682" type="curve" smooth="yes"/>
    </contour>
    <contour>
      <point x="351" y="764" type="line"/>
      <point x="283" y="794" type="line"/>
      <point x="218" y="632" type="line"/>
      <point x="312" y="640" type="line"/>
    </contour>
  </outline>
</glyph>
<glyph name="quoteright" format="1">
  <advance width="600"/>
  <unicode hex="2019"/>
  <outline>
    <contour>
      <point x="346" y="621"/>
      <point x="384" y="659"/>
      <point x="384" y="708" type="curve" smooth="yes"/>
      <point x="384" y="756"/>
      <point x="346" y="794"/>
      <point x="297" y="794" type="curve" smooth="yes"/>
      <point x="248" y="794"/>
      <point x="210" y="756"/>
      <point x="210" y="708" type="curve" smooth="yes"/>
      <point x="210" y="659"/>
      <point x="248" y="621"/>
      <point x="297" y="621" type="curve" smooth="yes"/>
    </contour>
    <contour>
      <point x="243" y="539" type="line"/>
      <point x="311" y="509" type="line"/>
      <point x="376" y="671" type="line"/>
      <point x="282" y="663" type="line"/>
    </contour>
  </outline>
</glyph>
<glyph name="quotedblleft" format="1">
  <advance width="600"/>
  <unicode hex="201C"/>
  <outline>
    <contour>
      <point x="252" y="650" type="line"/>
      <point x="291" y="774" type="line"/>
      <point x="223" y="804" type="line"/>
      <point x="158" y="642" type="line"/>
    </contour>
    <contour>
      <point x="491" y="519"/>
      <point x="529" y="557"/>
      <point x="529" y="605" type="curve" smooth="yes"/>
      <point x="529" y="654"/>
      <point x="491" y="692"/>
      <point x="442" y="692" type="curve" smooth="yes"/>
      <point x="393" y="692"/>
      <point x="355" y="654"/>
      <point x="355" y="605" type="curve" smooth="yes"/>
      <point x="355" y="557"/>
      <point x="393" y="519"/>
      <point x="442" y="519" type="curve" smooth="yes"/>
    </contour>
    <contour>
      <point x="457" y="650" type="line"/>
      <point x="496" y="774" type="line"/>
      <point x="428" y="804" type="line"/>
      <point x="363" y="642" type="line"/>
    </contour>
    <contour>
      <point x="286" y="519"/>
      <point x="324" y="557"/>
      <point x="324" y="605" type="curve" smooth="yes"/>
      <point x="324" y="654"/>
      <point x="286" y="692"/>
      <point x="237" y="692" type="curve" smooth="yes"/>
      <point x="188" y="692"/>
      <point x="150" y="654"/>
      <point x="150" y="605" type="curve" smooth="yes"/>
      <point x="150" y="557"/>
      <point x="188" y="519"/>
      <point x="237" y="519" type="curve" smooth="yes"/>
    </contour>
  </outline>
</glyph>
<glyph name="quotedblright" format="1">
  <advance width="600"/>
  <unicode hex="201D"/>
  <outline>
    <contour>
      <point x="424" y="628"/>
      <point x="462" y="666"/>
      <point x="462" y="715" type="curve" smooth="yes"/>
      <point x="462" y="763"/>
      <point x="424" y="801"/>
      <point x="375" y="801" type="curve" smooth="yes"/>
      <point x="326" y="801"/>
      <point x="288" y="763"/>
      <point x="288" y="715" type="curve" smooth="yes"/>
      <point x="288" y="666"/>
      <point x="326" y="628"/>
      <point x="375" y="628" type="curve" smooth="yes"/>
    </contour>
    <contour>
      <point x="249" y="678" type="line"/>
      <point x="155" y="670" type="line"/>
      <point x="116" y="546" type="line"/>
      <point x="184" y="516" type="line"/>
    </contour>
    <contour>
      <point x="219" y="628"/>
      <point x="257" y="666"/>
      <point x="257" y="715" type="curve" smooth="yes"/>
      <point x="257" y="763"/>
      <point x="219" y="801"/>
      <point x="170" y="801" type="curve" smooth="yes"/>
      <point x="121" y="801"/>
      <point x="83" y="763"/>
      <point x="83" y="715" type="curve" smooth="yes"/>
      <point x="83" y="666"/>
      <point x="121" y="628"/>
      <point x="170" y="628" type="curve" smooth="yes"/>
    </contour>
    <contour>
      <point x="454" y="678" type="line"/>
      <point x="360" y="670" type="line"/>
      <point x="321" y="546" type="line"/>
      <point x="389" y="516" type="line"/>
    </contour>
  </outline>
</glyph>
<glyph name="dagger" format="1">
  <advance width="600"/>
  <unicode hex="2020"/>
  <outline>
    <contour>
      <point x="365" y="0" type="line"/>
      <point x="365" y="680" type="line"/>
      <point x="232" y="680" type="line"/>
      <point x="232" y="0" type="line"/>
    </contour>
    <contour>
      <point x="117" y="378" type="line"/>
      <point x="482" y="378" type="line"/>
      <point x="482" y="500" type="line"/>
      <point x="117" y="500" type="line"/>
    </contour>
  </outline>
</glyph>
<glyph name="daggerdbl" format="1">
  <advance width="600"/>
  <unicode hex="2021"/>
  <outline>
    <contour>
      <point x="117" y="148" type="line"/>
      <point x="482" y="148" type="line"/>
      <point x="482" y="270" type="line"/>
      <point x="117" y="270" type="line"/>
    </contour>
    <component base="dagger"/>
  </outline>
</glyph>
<glyph name="bullet" format="1">
  <advance width="600"/>
  <unicode hex="2022"/>
  <outline>
    <contour>
      <point x="382" y="181"/>
      <point x="450" y="249"/>
      <point x="450" y="335" type="curve" smooth="yes"/>
      <point x="450" y="422"/>
      <point x="382" y="490"/>
      <point x="296" y="490" type="curve" smooth="yes"/>
      <point x="210" y="490"/>
      <point x="142" y="422"/>
      <point x="142" y="335" type="curve" smooth="yes"/>
      <point x="142" y="249"/>
      <point x="210" y="181"/>
      <point x="296" y="181" type="curve" smooth="yes"/>
    </contour>
  </outline>
</glyph>
<glyph name="perthousand" format="1">
  <advance width="600"/>
  <unicode hex="2030"/>
  <outline>
    <contour>
      <point x="579" y="525" type="line"/>
      <point x="519" y="605" type="line"/>
      <point x="4" y="286" type="line"/>
      <point x="64" y="206" type="line"/>
    </contour>
    <contour>
      <point x="248" y="3"/>
      <point x="297" y="32"/>
      <point x="297" y="111" type="curve" smooth="yes"/>
      <point x="297" y="188"/>
      <point x="248" y="217"/>
      <point x="194" y="217" type="curve" smooth="yes"/>
      <point x="138" y="217"/>
      <point x="90" y="188"/>
      <point x="90" y="111" type="curve" smooth="yes"/>
      <point x="90" y="32"/>
      <point x="138" y="3"/>
      <point x="194" y="3" type="curve" smooth="yes"/>
    </contour>
    <contour>
      <point x="179" y="71"/>
      <point x="168" y="81"/>
      <point x="168" y="111" type="curve" smooth="yes"/>
      <point x="168" y="138"/>
      <point x="179" y="149"/>
      <point x="194" y="149" type="curve" smooth="yes"/>
      <point x="207" y="149"/>
      <point x="219" y="138"/>
      <point x="219" y="111" type="curve" smooth="yes"/>
      <point x="219" y="81"/>
      <point x="207" y="71"/>
      <point x="194" y="71" type="curve" smooth="yes"/>
    </contour>
    <contour>
      <point x="498" y="3"/>
      <point x="547" y="32"/>
      <point x="547" y="111" type="curve" smooth="yes"/>
      <point x="547" y="188"/>
      <point x="498" y="217"/>
      <point x="443" y="217" type="curve" smooth="yes"/>
      <point x="388" y="217"/>
      <point x="340" y="188"/>
      <point x="340" y="111" type="curve" smooth="yes"/>
      <point x="340" y="32"/>
      <point x="388" y="3"/>
      <point x="443" y="3" type="curve" smooth="yes"/>
    </contour>
    <contour>
      <point x="429" y="71"/>
      <point x="418" y="81"/>
      <point x="418" y="111" type="curve" smooth="yes"/>
      <point x="418" y="138"/>
      <point x="429" y="149"/>
      <point x="443" y="149" type="curve" smooth="yes"/>
      <point x="457" y="149"/>
      <point x="469" y="138"/>
      <point x="469" y="111" type="curve" smooth="yes"/>
      <point x="469" y="81"/>
      <point x="457" y="71"/>
      <point x="443" y="71" type="curve" smooth="yes"/>
    </contour>
    <contour>
      <point x="249" y="469"/>
      <point x="298" y="498"/>
      <point x="298" y="577" type="curve" smooth="yes"/>
      <point x="298" y="654"/>
      <point x="249" y="683"/>
      <point x="194" y="683" type="curve" smooth="yes"/>
      <point x="139" y="683"/>
      <point x="91" y="654"/>
      <point x="91" y="577" type="curve" smooth="yes"/>
      <point x="91" y="498"/>
      <point x="139" y="469"/>
      <point x="194" y="469" type="curve" smooth="yes"/>
    </contour>
    <contour>
      <point x="180" y="537"/>
      <point x="169" y="547"/>
      <point x="169" y="577" type="curve" smooth="yes"/>
      <point x="169" y="604"/>
      <point x="180" y="615"/>
      <point x="194" y="615" type="curve" smooth="yes"/>
      <point x="208" y="615"/>
      <point x="220" y="604"/>
      <point x="220" y="577" type="curve" smooth="yes"/>
      <point x="220" y="547"/>
      <point x="208" y="537"/>
      <point x="194" y="537" type="curve" smooth="yes"/>
    </contour>
  </outline>
</glyph>
<glyph name="guilsinglleft" format="1">
  <advance width="600"/>
  <unicode hex="2039"/>
  <outline>
    <contour>
      <point x="230" y="242" type="line"/>
      <point x="437" y="457" type="line"/>
      <point x="364" y="530" type="line"/>
      <point x="132" y="352" type="line"/>
    </contour>
    <contour>
      <point x="364" y="57" type="line"/>
      <point x="437" y="130" type="line"/>
      <point x="230" y="346" type="line"/>
      <point x="132" y="235" type="line"/>
    </contour>
    <contour>
      <point x="132" y="235" type="line"/>
      <point x="213" y="235" type="line"/>
      <point x="213" y="352" type="line"/>
      <point x="132" y="352" type="line"/>
    </contour>
  </outline>
</glyph>
<glyph name="fraction" format="1">
  <advance width="600"/>
  <unicode hex="2044"/>
  <outline>
    <contour>
      <point x="456" y="800" type="line"/>
      <point x="17" y="-142" type="line"/>
      <point x="137" y="-142" type="line"/>
      <point x="576" y="800" type="line"/>
    </contour>
  </outline>
</glyph>
<glyph name="euro" format="1">
  <advance width="600"/>
  <unicode hex="20AC"/>
  <outline>
    <contour>
      <point x="452" y="-11"/>
      <point x="532" y="21"/>
      <point x="580" y="113" type="curve"/>
      <point x="464" y="178" type="line"/>
      <point x="434" y="114"/>
      <point x="395" y="112"/>
      <point x="360" y="112" type="curve" smooth="yes"/>
      <point x="307" y="112"/>
      <point x="243" y="149"/>
      <point x="243" y="348" type="curve" smooth="yes"/>
      <point x="243" y="546"/>
      <point x="307" y="583"/>
      <point x="360" y="583" type="curve" smooth="yes"/>
      <point x="394" y="583"/>
      <point x="432" y="582"/>
      <point x="462" y="520" type="curve"/>
      <point x="578" y="585" type="line"/>
      <point x="530" y="675"/>
      <point x="451" y="706"/>
      <point x="360" y="706" type="curve" smooth="yes"/>
      <point x="213" y="706"/>
      <point x="85" y="630"/>
      <point x="85" y="348" type="curve" smooth="yes"/>
      <point x="85" y="65"/>
      <point x="213" y="-11"/>
      <point x="360" y="-11" type="curve" smooth="yes"/>
    </contour>
    <contour>
      <point x="419" y="211" type="line"/>
      <point x="434" y="323" type="line"/>
      <point x="15" y="323" type="line"/>
      <point x="0" y="211" type="line"/>
    </contour>
    <contour>
      <point x="441" y="376" type="line"/>
      <point x="456" y="488" type="line"/>
      <point x="27" y="488" type="line"/>
      <point x="12" y="376" type="line"/>
    </contour>
  </outline>
</glyph>
<glyph name="trademark" format="1">
  <advance width="600"/>
  <unicode hex="2122"/>
  <outline>
    <contour>
      <point x="198" y="426" type="line"/>
      <point x="198" y="700" type="line"/>
      <point x="103" y="700" type="line"/>
      <point x="103" y="426" type="line"/>
    </contour>
    <contour>
      <point x="23" y="629" type="line"/>
      <point x="279" y="629" type="line"/>
      <point x="279" y="700" type="line"/>
      <point x="23" y="700" type="line"/>
    </contour>
    <contour>
      <point x="357" y="426" type="line"/>
      <point x="368" y="700" type="line"/>
      <point x="301" y="700" type="line"/>
      <point x="282" y="426" type="line"/>
    </contour>
    <contour>
      <point x="571" y="426" type="line"/>
      <point x="550" y="700" type="line"/>
      <point x="484" y="700" type="line"/>
      <point x="493" y="426" type="line"/>
    </contour>
    <contour>
      <point x="425" y="572" type="line"/>
      <point x="408" y="472" type="line"/>
      <point x="454" y="472" type="line"/>
      <point x="510" y="700" type="line"/>
      <point x="466" y="700" type="line"/>
    </contour>
    <contour>
      <point x="341" y="700" type="line"/>
      <point x="399" y="472" type="line"/>
      <point x="445" y="472" type="line"/>
      <point x="428" y="572" type="line"/>
      <point x="387" y="700" type="line"/>
    </contour>
  </outline>
</glyph>
<glyph name="upArrow" format="1">
  <advance width="600"/>
  <unicode hex="2191"/>
  <outline>
    <contour>
      <point x="344" y="54" type="line"/>
      <point x="344" y="338" type="line"/>
      <point x="241" y="338" type="line" smooth="yes"/>
      <point x="241" y="54" type="line"/>
    </contour>
    <contour>
      <point x="292" y="500" type="line"/>
      <point x="172" y="313" type="line"/>
      <point x="413" y="313" type="line"/>
    </contour>
  </outline>
</glyph>
<glyph name="emptyset" format="1">
  <advance width="600"/>
  <unicode hex="2205"/>
  <outline>
    <contour>
      <point x="463" y="-2"/>
      <point x="593" y="128"/>
      <point x="593" y="288" type="curve" smooth="yes"/>
      <point x="593" y="448"/>
      <point x="463" y="578"/>
      <point x="303" y="578" type="curve" smooth="yes"/>
      <point x="142" y="578"/>
      <point x="12" y="448"/>
      <point x="12" y="288" type="curve" smooth="yes"/>
      <point x="12" y="128"/>
      <point x="142" y="-2"/>
      <point x="303" y="-2" type="curve" smooth="yes"/>
    </contour>
    <contour>
      <point x="214" y="128"/>
      <point x="142" y="200"/>
      <point x="142" y="288" type="curve" smooth="yes"/>
      <point x="142" y="376"/>
      <point x="214" y="448"/>
      <point x="303" y="448" type="curve" smooth="yes"/>
      <point x="391" y="448"/>
      <point x="463" y="376"/>
      <point x="463" y="288" type="curve" smooth="yes"/>
      <point x="463" y="200"/>
      <point x="391" y="128"/>
      <point x="303" y="128" type="curve" smooth="yes"/>
    </contour>
    <contour>
      <point x="6" y="75" type="line"/>
      <point x="81" y="0" type="line"/>
      <point x="582" y="501" type="line"/>
      <point x="507" y="576" type="line"/>
    </contour>
  </outline>
</glyph>
<glyph name="minus" format="1">
  <advance width="600"/>
  <unicode hex="2212"/>
  <outline>
    <contour>
      <point x="99" y="243" type="line"/>
      <point x="506" y="243" type="line"/>
      <point x="506" y="365" type="line"/>
      <point x="99" y="365" type="line"/>
    </contour>
  </outline>
</glyph>
<glyph name="radical" format="1">
  <advance width="600"/>
  <unicode hex="221A"/>
  <outline>
    <contour>
      <point x="295" y="0" type="line"/>
      <point x="490" y="869" type="line"/>
      <point x="355" y="869" type="line"/>
      <point x="160" y="0" type="line"/>
    </contour>
    <contour>
      <point x="273" y="0" type="line"/>
      <point x="273" y="122" type="line"/>
      <point x="115" y="122" type="line"/>
      <point x="115" y="0" type="line"/>
    </contour>
    <contour>
      <point x="228" y="0" type="line"/>
      <point x="144" y="373" type="line"/>
      <point x="9" y="373" type="line"/>
      <point x="93" y="0" type="line"/>
    </contour>
    <contour>
      <point x="605" y="747" type="line"/>
      <point x="605" y="869" type="line"/>
      <point x="447" y="869" type="line"/>
      <point x="447" y="747" type="line"/>
    </contour>
  </outline>
</glyph>
<glyph name="infinity" format="1">
  <advance width="600"/>
  <unicode hex="221E"/>
  <outline>
    <contour>
      <point x="314" y="146"/>
      <point x="345" y="309"/>
      <point x="345" y="309" type="curve" smooth="yes"/>
      <point x="345" y="309"/>
      <point x="314" y="470"/>
      <point x="185" y="481" type="curve" smooth="yes"/>
      <point x="93" y="488"/>
      <point x="22" y="423"/>
      <point x="22" y="309" type="curve" smooth="yes"/>
      <point x="22" y="192"/>
      <point x="93" y="128"/>
      <point x="185" y="135" type="curve" smooth="yes"/>
    </contour>
    <contour>
      <point x="152" y="245"/>
      <point x="137" y="267"/>
      <point x="137" y="309" type="curve" smooth="yes"/>
      <point x="137" y="349"/>
      <point x="152" y="371"/>
      <point x="185" y="371" type="curve" smooth="yes"/>
      <point x="230" y="371"/>
      <point x="248" y="309"/>
      <point x="248" y="309" type="curve" smooth="yes"/>
      <point x="248" y="309"/>
      <point x="230" y="245"/>
      <point x="185" y="245" type="curve" smooth="yes"/>
    </contour>
    <contour>
      <point x="503" y="128"/>
      <point x="574" y="192"/>
      <point x="574" y="309" type="curve" smooth="yes"/>
      <point x="574" y="423"/>
      <point x="503" y="488"/>
      <point x="411" y="481" type="curve" smooth="yes"/>
      <point x="282" y="470"/>
      <point x="251" y="309"/>
      <point x="251" y="309" type="curve" smooth="yes"/>
      <point x="251" y="309"/>
      <point x="282" y="146"/>
      <point x="411" y="135" type="curve" smooth="yes"/>
    </contour>
    <contour>
      <point x="366" y="245"/>
      <point x="348" y="309"/>
      <point x="348" y="309" type="curve" smooth="yes"/>
      <point x="348" y="309"/>
      <point x="366" y="371"/>
      <point x="411" y="371" type="curve" smooth="yes"/>
      <point x="444" y="371"/>
      <point x="459" y="349"/>
      <point x="459" y="309" type="curve" smooth="yes"/>
      <point x="459" y="267"/>
      <point x="444" y="245"/>
      <point x="411" y="245" type="curve" smooth="yes"/>
    </contour>
  </outline>
</glyph>
<glyph name="approxequal" format="1">
  <advance width="600"/>
  <unicode hex="2248"/>
  <outline>
    <contour>
      <point x="74" y="414"/>
      <point x="123" y="471"/>
      <point x="212" y="471" type="curve" smooth="yes"/>
      <point x="305" y="471"/>
      <point x="313" y="403"/>
      <point x="365" y="403" type="curve" smooth="yes"/>
      <point x="417" y="403"/>
      <point x="474" y="449"/>
      <point x="474" y="449" type="curve"/>
      <point x="514" y="375" type="line"/>
      <point x="506" y="365"/>
      <point x="462" y="309"/>
      <point x="373" y="309" type="curve" smooth="yes"/>
      <point x="280" y="309"/>
      <point x="272" y="375"/>
      <point x="220" y="375" type="curve" smooth="yes"/>
      <point x="168" y="375"/>
      <point x="109" y="330"/>
      <point x="109" y="330" type="curve"/>
      <point x="69" y="403" type="line"/>
    </contour>
    <contour>
      <point x="74" y="255"/>
      <point x="123" y="312"/>
      <point x="212" y="312" type="curve" smooth="yes"/>
      <point x="305" y="312"/>
      <point x="313" y="244"/>
      <point x="365" y="244" type="curve" smooth="yes"/>
      <point x="417" y="244"/>
      <point x="474" y="290"/>
      <point x="474" y="290" type="curve"/>
      <point x="514" y="216" type="line"/>
      <point x="506" y="206"/>
      <point x="462" y="150"/>
      <point x="373" y="150" type="curve" smooth="yes"/>
      <point x="280" y="150"/>
      <point x="272" y="216"/>
      <point x="220" y="216" type="curve" smooth="yes"/>
      <point x="168" y="216"/>
      <point x="109" y="171"/>
      <point x="109" y="171" type="curve"/>
      <point x="69" y="244" type="line"/>
    </contour>
  </outline>
</glyph>
<glyph name="notequal" format="1">
  <advance width="600"/>
  <unicode hex="2260"/>
  <outline>
    <contour>
      <point x="243" y="69" type="line"/>
      <point x="474" y="546" type="line"/>
      <point x="345" y="546" type="line"/>
      <point x="115" y="69" type="line"/>
    </contour>
    <component base="equal"/>
  </outline>
</glyph>
<glyph name="greaterequal" format="1">
  <advance width="600"/>
  <unicode hex="2265"/>
  <outline>
    <contour>
      <point x="165" y="613" type="line"/>
      <point x="102" y="520" type="line"/>
      <point x="373" y="353" type="line"/>
      <point x="481" y="473" type="line"/>
    </contour>
    <contour>
      <point x="390" y="473" type="line"/>
      <point x="390" y="346" type="line"/>
      <point x="481" y="346" type="line"/>
      <point x="481" y="473" type="line"/>
    </contour>
    <contour>
      <point x="373" y="466" type="line"/>
      <point x="102" y="299" type="line"/>
      <point x="165" y="206" type="line"/>
      <point x="481" y="346" type="line"/>
    </contour>
    <contour>
      <point x="117" y="169" type="line"/>
      <point x="117" y="57" type="line"/>
      <point x="481" y="57" type="line"/>
      <point x="481" y="169" type="line"/>
    </contour>
  </outline>
</glyph>
<glyph name="lozenge" format="1">
  <advance width="600"/>
  <unicode hex="25CA"/>
  <outline>
    <contour>
      <point x="224" y="672" type="line"/>
      <point x="431" y="331" type="line"/>
      <point x="584" y="350" type="line"/>
      <point x="374" y="700" type="line"/>
    </contour>
    <contour>
      <point x="227" y="700" type="line"/>
      <point x="227" y="649" type="line"/>
      <point x="374" y="649" type="line"/>
      <point x="374" y="700" type="line"/>
    </contour>
    <contour>
      <point x="17" y="350" type="line"/>
      <point x="170" y="331" type="line"/>
      <point x="377" y="672" type="line"/>
      <point x="227" y="700" type="line"/>
    </contour>
    <contour>
      <point x="584" y="350" type="line"/>
      <point x="431" y="369" type="line"/>
      <point x="224" y="28" type="line"/>
      <point x="374" y="0" type="line"/>
    </contour>
    <contour>
      <point x="374" y="51" type="line"/>
      <point x="227" y="51" type="line"/>
      <point x="227" y="0" type="line"/>
      <point x="374" y="0" type="line"/>
    </contour>
    <contour>
      <point x="377" y="28" type="line"/>
      <point x="170" y="369" type="line"/>
      <point x="17" y="350" type="line"/>
      <point x="227" y="0" type="line"/>
    </contour>
  </outline>
</glyph>
<glyph name="G.ss01" format="1">
  <advance width="600"/>
  <outline>
    <contour>
      <point x="474" y="-11"/>
      <point x="569" y="90"/>
      <point x="569" y="303" type="curve"/>
      <point x="427" y="333" type="line"/>
      <point x="427" y="155"/>
      <point x="390" y="112"/>
      <point x="317" y="112" type="curve" smooth="yes"/>
      <point x="244" y="112"/>
      <point x="195" y="145"/>
      <point x="195" y="348" type="curve" smooth="yes"/>
      <point x="195" y="551"/>
      <point x="239" y="583"/>
      <point x="312" y="583" type="curve" smooth="yes"/>
      <point x="366" y="583"/>
      <point x="394" y="548"/>
      <point x="422" y="488" type="curve"/>
      <point x="560" y="565" type="line"/>
      <point x="512" y="665"/>
      <point x="423" y="706"/>
      <point x="312" y="706" type="curve" smooth="yes"/>
      <point x="155" y="706"/>
      <point x="37" y="635"/>
      <point x="37" y="348" type="curve" smooth="yes"/>
      <point x="37" y="60"/>
      <point x="160" y="-11"/>
      <point x="317" y="-11" type="curve" smooth="yes"/>
    </contour>
    <contour>
      <point x="569" y="283" type="line"/>
      <point x="569" y="405" type="line"/>
      <point x="311" y="405" type="line"/>
      <point x="311" y="283" type="line"/>
    </contour>
  </outline>
</glyph>
<glyph name="Q.ss01" format="1">
  <advance width="600"/>
  <outline>
    <contour>
      <point x="463" y="-11"/>
      <point x="571" y="60"/>
      <point x="571" y="348" type="curve" smooth="yes"/>
      <point x="571" y="635"/>
      <point x="463" y="706"/>
      <point x="297" y="706" type="curve" smooth="yes"/>
      <point x="130" y="706"/>
      <point x="22" y="635"/>
      <point x="22" y="348" type="curve" smooth="yes"/>
      <point x="22" y="60"/>
      <point x="130" y="-11"/>
      <point x="297" y="-11" type="curve" smooth="yes"/>
    </contour>
    <contour>
      <point x="608" y="-66" type="line"/>
      <point x="598" y="44"/>
      <point x="507" y="146"/>
      <point x="327" y="114" type="curve"/>
      <point x="351" y="-8" type="line"/>
      <point x="436" y="8"/>
      <point x="484" y="-76"/>
      <point x="499" y="-162" type="curve"/>
    </contour>
    <contour>
      <point x="224" y="112"/>
      <point x="180" y="164"/>
      <point x="180" y="348" type="curve" smooth="yes"/>
      <point x="180" y="531"/>
      <point x="224" y="583"/>
      <point x="297" y="583" type="curve" smooth="yes"/>
      <point x="369" y="583"/>
      <point x="413" y="531"/>
      <point x="413" y="348" type="curve" smooth="yes"/>
      <point x="413" y="164"/>
      <point x="369" y="112"/>
      <point x="297" y="112" type="curve" smooth="yes"/>
    </contour>
  </outline>
</glyph>
<glyph name="X.ss01" format="1">
  <advance width="600"/>
  <outline>
    <contour>
      <point x="230" y="371" type="line"/>
      <point x="26" y="0" type="line"/>
      <point x="193" y="0" type="line"/>
      <point x="367" y="332" type="line"/>
    </contour>
    <contour>
      <point x="367" y="332" type="line"/>
      <point x="572" y="700" type="line"/>
      <point x="406" y="700" type="line"/>
      <point x="230" y="371" type="line"/>
    </contour>
    <contour>
      <point x="406" y="0" type="line"/>
      <point x="572" y="0" type="line"/>
      <point x="368" y="371" type="line"/>
      <point x="231" y="332" type="line"/>
    </contour>
    <contour>
      <point x="193" y="700" type="line"/>
      <point x="26" y="700" type="line"/>
      <point x="231" y="332" type="line"/>
      <point x="368" y="371" type="line"/>
    </contour>
  </outline>
</glyph>
<glyph name="a.ss01" format="1">
  <advance width="600"/>
  <outline>
    <contour>
      <point x="517" y="366" type="line"/>
      <point x="517" y="457"/>
      <point x="435" y="512"/>
      <point x="309" y="512" type="curve"/>
      <point x="214" y="512"/>
      <point x="128" y="489"/>
      <point x="73" y="434" type="curve"/>
      <point x="166" y="345" type="line"/>
      <point x="191" y="373"/>
      <point x="237" y="389"/>
      <point x="302" y="389" type="curve"/>
      <point x="377" y="389"/>
      <point x="364" y="370"/>
      <point x="364" y="331" type="curve"/>
    </contour>
    <contour>
      <point x="416" y="-11"/>
      <point x="452" y="76"/>
      <point x="452" y="76" type="curve"/>
      <point x="390" y="176" type="line"/>
      <point x="365" y="128"/>
      <point x="340" y="111"/>
      <point x="293" y="111" type="curve"/>
      <point x="221" y="111"/>
      <point x="196" y="119"/>
      <point x="196" y="153" type="curve"/>
      <point x="43" y="153" type="line"/>
      <point x="43" y="41"/>
      <point x="127" y="-11"/>
      <point x="279" y="-11" type="curve"/>
    </contour>
    <contour>
      <point x="196" y="153" type="line"/>
      <point x="196" y="180"/>
      <point x="205" y="204"/>
      <point x="311" y="204" type="curve"/>
      <point x="299" y="316" type="line"/>
      <point x="124" y="316"/>
      <point x="43" y="264"/>
      <point x="43" y="153" type="curve"/>
    </contour>
    <contour>
      <point x="521" y="-11"/>
      <point x="570" y="-9"/>
      <point x="582" y="-6" type="curve"/>
      <point x="582" y="110" type="line"/>
      <point x="576" y="109"/>
      <point x="561" y="108"/>
      <point x="557" y="108" type="curve"/>
      <point x="525" y="108"/>
      <point x="517" y="124"/>
      <point x="517" y="152" type="curve"/>
      <point x="364" y="122" type="line"/>
      <point x="364" y="36"/>
      <point x="437" y="-11"/>
      <point x="508" y="-11" type="curve"/>
    </contour>
    <contour>
      <point x="472" y="204" type="line"/>
      <point x="472" y="316" type="line"/>
      <point x="299" y="316" type="line"/>
      <point x="311" y="204" type="line"/>
    </contour>
    <contour>
      <point x="517" y="152" type="line"/>
      <point x="517" y="304" type="line"/>
      <point x="364" y="294" type="line"/>
      <point x="364" y="122" type="line"/>
    </contour>
    <contour>
      <point x="517" y="209" type="line"/>
      <point x="517" y="366" type="line"/>
      <point x="364" y="331" type="line"/>
      <point x="364" y="204" type="line"/>
    </contour>
  </outline>
</glyph>
<glyph name="g.ss01" format="1">
  <advance width="600"/>
  <outline>
    <contour>
      <point x="586" y="503" type="line"/>
      <point x="518" y="503"/>
      <point x="435" y="467"/>
      <point x="449" y="367" type="curve"/>
      <point x="545" y="331" type="line"/>
      <point x="541" y="389"/>
      <point x="592" y="394"/>
      <point x="611" y="393" type="curve"/>
    </contour>
    <contour>
      <point x="427" y="149"/>
      <point x="545" y="188"/>
      <point x="545" y="331" type="curve" smooth="yes"/>
      <point x="545" y="473"/>
      <point x="437" y="512"/>
      <point x="301" y="512" type="curve" smooth="yes"/>
      <point x="164" y="512"/>
      <point x="56" y="473"/>
      <point x="56" y="331" type="curve" smooth="yes"/>
      <point x="56" y="188"/>
      <point x="164" y="149"/>
      <point x="301" y="149" type="curve" smooth="yes"/>
    </contour>
    <contour>
      <point x="238" y="271"/>
      <point x="214" y="287"/>
      <point x="214" y="331" type="curve" smooth="yes"/>
      <point x="214" y="374"/>
      <point x="238" y="390"/>
      <point x="301" y="390" type="curve" smooth="yes"/>
      <point x="363" y="390"/>
      <point x="387" y="374"/>
      <point x="387" y="331" type="curve" smooth="yes"/>
      <point x="387" y="287"/>
      <point x="363" y="271"/>
      <point x="301" y="271" type="curve" smooth="yes"/>
    </contour>
    <contour>
      <point x="268" y="-1" type="line"/>
      <point x="288" y="101" type="line"/>
      <point x="284" y="101" type="line" smooth="yes"/>
      <point x="212" y="101"/>
      <point x="225" y="142"/>
      <point x="248" y="170" type="curve"/>
      <point x="155" y="199" type="line"/>
      <point x="130" y="181"/>
      <point x="75" y="161"/>
      <point x="75" y="92" type="curve" smooth="yes"/>
      <point x="75" y="17"/>
      <point x="199" y="-1"/>
      <point x="260" y="-1" type="curve" smooth="yes"/>
    </contour>
    <contour>
      <point x="45" y="-167"/>
      <point x="159" y="-202"/>
      <point x="307" y="-202" type="curve"/>
      <point x="307" y="-84" type="line"/>
      <point x="241" y="-84"/>
      <point x="205" y="-79"/>
      <point x="197" y="-52" type="curve" smooth="yes"/>
      <point x="189" y="-25"/>
      <point x="205" y="-1"/>
      <point x="226" y="17" type="curve"/>
      <point x="115" y="45" type="line"/>
      <point x="90" y="27"/>
      <point x="45" y="0"/>
      <point x="45" y="-69" type="curve" smooth="yes"/>
    </contour>
    <contour>
      <point x="576" y="45"/>
      <point x="530" y="101"/>
      <point x="406" y="101" type="curve"/>
      <point x="364" y="-1" type="line"/>
      <point x="415" y="-1"/>
      <point x="423" y="-14"/>
      <point x="416" y="-47" type="curve" smooth="yes"/>
      <point x="409" y="-81"/>
      <point x="358" y="-84"/>
      <point x="307" y="-84" type="curve"/>
      <point x="307" y="-202" type="line"/>
      <point x="485" y="-202"/>
      <point x="554" y="-133"/>
      <point x="565" y="-43" type="curve" smooth="yes"/>
    </contour>
    <contour>
      <point x="406" y="101" type="line"/>
      <point x="406" y="101"/>
      <point x="405" y="101"/>
      <point x="405" y="101" type="curve" smooth="yes"/>
      <point x="288" y="101" type="line"/>
      <point x="268" y="-1" type="line"/>
      <point x="364" y="-1" type="line"/>
    </contour>
  </outline>
</glyph>
<glyph name="i.ss01" format="1">
  <advance width="600"/>
  <outline>
    <contour>
      <point x="472" y="-11"/>
      <point x="526" y="-1"/>
      <point x="534" y="0" type="curve"/>
      <point x="534" y="123" type="line"/>
      <point x="529" y="121"/>
      <point x="469" y="106"/>
      <point x="430" y="106" type="curve"/>
      <point x="403" y="106"/>
      <point x="382" y="109"/>
      <point x="382" y="172" type="curve"/>
      <point x="229" y="122" type="line"/>
      <point x="229" y="9"/>
      <point x="313" y="-11"/>
      <point x="405" y="-11" type="curve"/>
    </contour>
    <contour>
      <point x="382" y="172" type="line"/>
      <point x="382" y="500" type="line"/>
      <point x="229" y="500" type="line"/>
      <point x="229" y="122" type="line"/>
    </contour>
    <contour>
      <point x="234" y="378" type="line"/>
      <point x="234" y="500" type="line"/>
      <point x="101" y="500" type="line"/>
      <point x="101" y="378" type="line"/>
    </contour>
    <contour>
      <point x="356" y="605"/>
      <point x="397" y="646"/>
      <point x="397" y="698" type="curve" smooth="yes"/>
      <point x="397" y="750"/>
      <point x="356" y="791"/>
      <point x="304" y="791" type="curve" smooth="yes"/>
      <point x="252" y="791"/>
      <point x="211" y="750"/>
      <point x="211" y="698" type="curve" smooth="yes"/>
      <point x="211" y="646"/>
      <point x="252" y="605"/>
      <point x="304" y="605" type="curve" smooth="yes"/>
    </contour>
  </outline>
</glyph>
<glyph name="l.ss01" format="1">
  <advance width="600"/>
  <outline>
    <contour>
      <point x="366" y="56" type="line"/>
      <point x="366" y="800" type="line"/>
      <point x="213" y="800" type="line"/>
      <point x="213" y="31" type="line"/>
    </contour>
    <contour>
      <point x="485" y="0" type="line"/>
      <point x="485" y="122" type="line"/>
      <point x="213" y="122" type="line"/>
      <point x="213" y="0" type="line"/>
    </contour>
    <contour>
      <point x="218" y="678" type="line"/>
      <point x="218" y="800" type="line"/>
      <point x="85" y="800" type="line"/>
      <point x="85" y="678" type="line"/>
    </contour>
  </outline>
</glyph>
<glyph name="t.ss01" format="1">
  <advance width="600"/>
  <outline>
    <contour>
      <point x="375" y="0" type="line"/>
      <point x="375" y="680" type="line"/>
      <point x="222" y="680" type="line"/>
      <point x="222" y="0" type="line"/>
    </contour>
    <contour>
      <point x="487" y="0" type="line"/>
      <point x="487" y="122" type="line"/>
      <point x="294" y="122" type="line"/>
      <point x="294" y="0" type="line"/>
    </contour>
    <contour>
      <point x="527" y="378" type="line"/>
      <point x="527" y="500" type="line"/>
      <point x="102" y="500" type="line"/>
      <point x="102" y="378" type="line"/>
    </contour>
  </outline>
</glyph>
<glyph name="three.ss01" format="1">
  <advance width="600"/>
  <outline>
    <contour>
      <point x="448" y="-11"/>
      <point x="553" y="90"/>
      <point x="553" y="219" type="curve" smooth="yes"/>
      <point x="553" y="348"/>
      <point x="452" y="428"/>
      <point x="334" y="402" type="curve"/>
      <point x="261" y="309" type="line"/>
      <point x="360" y="335"/>
      <point x="410" y="275"/>
      <point x="410" y="219" type="curve" smooth="yes"/>
      <point x="410" y="156"/>
      <point x="370" y="112"/>
      <point x="305" y="112" type="curve" smooth="yes"/>
      <point x="237" y="112"/>
      <point x="192" y="145"/>
      <point x="170" y="195" type="curve"/>
      <point x="48" y="130" type="line"/>
      <point x="86" y="54"/>
      <point x="179" y="-11"/>
      <point x="308" y="-11" type="curve" smooth="yes"/>
    </contour>
    <contour>
      <point x="349" y="578" type="line"/>
      <point x="178" y="402" type="line"/>
      <point x="261" y="309" type="line"/>
      <point x="524" y="578" type="line"/>
    </contour>
    <contour>
      <point x="524" y="700" type="line"/>
      <point x="73" y="700" type="line"/>
      <point x="73" y="578" type="line"/>
      <point x="524" y="578" type="line"/>
    </contour>
  </outline>
</glyph>
<glyph name="x.ss01" format="1">
  <advance width="600"/>
  <outline>
    <contour>
      <point x="230" y="265" type="line"/>
      <point x="26" y="0" type="line"/>
      <point x="193" y="0" type="line"/>
      <point x="367" y="237" type="line"/>
    </contour>
    <contour>
      <point x="367" y="237" type="line"/>
      <point x="572" y="500" type="line"/>
      <point x="416" y="500" type="line"/>
      <point x="230" y="265" type="line"/>
    </contour>
    <contour>
      <point x="406" y="0" type="line"/>
      <point x="572" y="0" type="line"/>
      <point x="368" y="265" type="line"/>
      <point x="231" y="237" type="line"/>
    </contour>
    <contour>
      <point x="193" y="500" type="line"/>
      <point x="26" y="500" type="line"/>
      <point x="231" y="237" type="line"/>
      <point x="368" y="265" type="line"/>
    </contour>
  </outline>
</glyph>
